STARTFONT 2.1
FONT -Adobe-Utopia-Regular-R-Normal--14-100-100-100-P-75-ISO10646-1
SIZE 10 100 100
FONTBOUNDINGBOX 18 23 -2 -5
COMMENT $XFree86$
COMMENT ISO10646-1 extension by Markus Kuhn <mkuhn@acm.org>, 2001-03-20
STARTPROPERTIES 28
FOUNDRY "Adobe"
FAMILY_NAME "Utopia"
WEIGHT_NAME "Regular"
SLANT "R"
SETWIDTH_NAME "Normal"
ADD_STYLE_NAME ""
PIXEL_SIZE 14
POINT_SIZE 100
RESOLUTION_X 100
RESOLUTION_Y 100
SPACING "P"
AVERAGE_WIDTH 75
CHARSET_REGISTRY "ISO10646"
CHARSET_ENCODING "1"
CAP_HEIGHT 10
X_HEIGHT 7
RELATIVE_SETWIDTH 50
RELATIVE_WEIGHT 50
WEIGHT 136
FACE_NAME "Utopia Regular"
COPYRIGHT "Copyright (c) 1989, 1991 Adobe Systems Incorporated.  All Rights Reserved."
NOTICE "Utopia is a registered trademark of Adobe Systems Incorporated."
DESTINATION 0
FONT_ASCENT 13
FONT_DESCENT 3
DEFAULT_CHAR 0
_ADOBE_PSFONT "Utopia-Regular"
_DEC_DEVICE_FONTNAMES "PS=Utopia-Regular"
ENDPROPERTIES
CHARS 756
STARTCHAR char0
ENCODING 0
SWIDTH 798 0
DWIDTH 11 0
BBX 9 9 1 0
BITMAP
AA80
0000
8080
0000
8080
0000
8080
0000
AA80
ENDCHAR
STARTCHAR space
ENCODING 32
SWIDTH 225 0
DWIDTH 3 0
BBX 0 0 0 0
BITMAP
ENDCHAR
STARTCHAR exclam
ENCODING 33
SWIDTH 242 0
DWIDTH 3 0
BBX 1 10 1 0
BITMAP
80
80
80
80
80
80
80
00
80
80
ENDCHAR
STARTCHAR quotedbl
ENCODING 34
SWIDTH 458 0
DWIDTH 6 0
BBX 4 4 1 6
BITMAP
90
90
90
90
ENDCHAR
STARTCHAR numbersign
ENCODING 35
SWIDTH 530 0
DWIDTH 7 0
BBX 7 10 0 0
BITMAP
14
24
24
7E
28
28
FC
48
48
50
ENDCHAR
STARTCHAR dollar
ENCODING 36
SWIDTH 530 0
DWIDTH 7 0
BBX 6 11 1 -1
BITMAP
20
70
AC
A0
60
30
2C
24
A4
78
20
ENDCHAR
STARTCHAR percent
ENCODING 37
SWIDTH 838 0
DWIDTH 12 0
BBX 10 11 1 -1
BITMAP
0100
7E00
9200
9200
9400
6980
0A40
1240
1240
2180
2000
ENDCHAR
STARTCHAR ampersand
ENCODING 38
SWIDTH 706 0
DWIDTH 10 0
BBX 9 9 1 0
BITMAP
3000
4800
4800
5100
7100
8900
8600
8E00
7180
ENDCHAR
STARTCHAR quotesingle
ENCODING 39
SWIDTH 278 0
DWIDTH 4 0
BBX 1 4 1 6
BITMAP
80
80
80
80
ENDCHAR
STARTCHAR parenleft
ENCODING 40
SWIDTH 350 0
DWIDTH 5 0
BBX 3 12 1 -2
BITMAP
20
40
40
80
80
80
80
80
80
40
40
20
ENDCHAR
STARTCHAR parenright
ENCODING 41
SWIDTH 350 0
DWIDTH 5 0
BBX 3 12 0 -2
BITMAP
80
40
40
20
20
20
20
20
20
40
40
80
ENDCHAR
STARTCHAR asterisk
ENCODING 42
SWIDTH 412 0
DWIDTH 6 0
BBX 4 5 1 5
BITMAP
20
B0
60
B0
00
ENDCHAR
STARTCHAR plus
ENCODING 43
SWIDTH 570 0
DWIDTH 8 0
BBX 7 7 0 0
BITMAP
10
10
10
FE
10
10
10
ENDCHAR
STARTCHAR comma
ENCODING 44
SWIDTH 265 0
DWIDTH 4 0
BBX 2 4 1 -2
BITMAP
40
40
40
80
ENDCHAR
STARTCHAR hyphen
ENCODING 45
SWIDTH 392 0
DWIDTH 5 0
BBX 3 1 1 3
BITMAP
E0
ENDCHAR
STARTCHAR period
ENCODING 46
SWIDTH 265 0
DWIDTH 4 0
BBX 1 1 1 0
BITMAP
80
ENDCHAR
STARTCHAR slash
ENCODING 47
SWIDTH 460 0
DWIDTH 6 0
BBX 4 10 1 0
BITMAP
10
10
20
20
20
40
40
40
80
80
ENDCHAR
STARTCHAR zero
ENCODING 48
SWIDTH 530 0
DWIDTH 7 0
BBX 6 9 1 0
BITMAP
30
48
84
84
84
84
84
48
30
ENDCHAR
STARTCHAR one
ENCODING 49
SWIDTH 530 0
DWIDTH 7 0
BBX 5 9 1 0
BITMAP
20
E0
20
20
20
20
20
20
F8
ENDCHAR
STARTCHAR two
ENCODING 50
SWIDTH 530 0
DWIDTH 7 0
BBX 6 9 1 0
BITMAP
70
88
88
08
10
20
40
84
F8
ENDCHAR
STARTCHAR three
ENCODING 51
SWIDTH 530 0
DWIDTH 7 0
BBX 6 9 0 0
BITMAP
38
44
0C
30
0C
04
84
4C
30
ENDCHAR
STARTCHAR four
ENCODING 52
SWIDTH 530 0
DWIDTH 7 0
BBX 6 9 0 0
BITMAP
08
08
18
28
48
48
FC
08
1C
ENDCHAR
STARTCHAR five
ENCODING 53
SWIDTH 530 0
DWIDTH 7 0
BBX 6 9 0 0
BITMAP
7C
40
40
78
44
04
04
C4
38
ENDCHAR
STARTCHAR six
ENCODING 54
SWIDTH 530 0
DWIDTH 7 0
BBX 6 9 1 0
BITMAP
30
48
80
B8
C4
84
84
44
38
ENDCHAR
STARTCHAR seven
ENCODING 55
SWIDTH 530 0
DWIDTH 7 0
BBX 6 9 1 0
BITMAP
7C
84
08
10
10
20
20
20
20
ENDCHAR
STARTCHAR eight
ENCODING 56
SWIDTH 530 0
DWIDTH 7 0
BBX 6 9 1 0
BITMAP
70
88
88
88
70
8C
84
84
78
ENDCHAR
STARTCHAR nine
ENCODING 57
SWIDTH 530 0
DWIDTH 7 0
BBX 5 9 1 0
BITMAP
70
88
88
98
68
08
08
90
60
ENDCHAR
STARTCHAR colon
ENCODING 58
SWIDTH 265 0
DWIDTH 4 0
BBX 1 7 1 0
BITMAP
80
80
00
00
00
80
80
ENDCHAR
STARTCHAR semicolon
ENCODING 59
SWIDTH 265 0
DWIDTH 4 0
BBX 2 8 1 -1
BITMAP
40
C0
00
00
40
40
40
80
ENDCHAR
STARTCHAR less
ENCODING 60
SWIDTH 570 0
DWIDTH 8 0
BBX 7 8 1 -1
BITMAP
02
0E
30
40
C0
30
0C
02
ENDCHAR
STARTCHAR equal
ENCODING 61
SWIDTH 570 0
DWIDTH 8 0
BBX 7 4 0 1
BITMAP
FE
00
00
FE
ENDCHAR
STARTCHAR greater
ENCODING 62
SWIDTH 570 0
DWIDTH 8 0
BBX 7 8 0 -1
BITMAP
80
E0
18
04
06
18
60
80
ENDCHAR
STARTCHAR question
ENCODING 63
SWIDTH 389 0
DWIDTH 5 0
BBX 5 10 0 0
BITMAP
70
88
88
10
20
40
30
00
20
20
ENDCHAR
STARTCHAR at
ENCODING 64
SWIDTH 793 0
DWIDTH 11 0
BBX 10 10 1 0
BITMAP
1F00
2080
4E40
9240
9440
A440
AC80
9300
4000
3E00
ENDCHAR
STARTCHAR A
ENCODING 65
SWIDTH 635 0
DWIDTH 9 0
BBX 9 10 0 0
BITMAP
0800
1800
1400
1400
2400
1C00
2200
4200
4100
E380
ENDCHAR
STARTCHAR B
ENCODING 66
SWIDTH 646 0
DWIDTH 9 0
BBX 7 10 1 0
BITMAP
FC
42
42
46
78
44
42
42
46
F8
ENDCHAR
STARTCHAR C
ENCODING 67
SWIDTH 684 0
DWIDTH 9 0
BBX 8 10 1 0
BITMAP
3C
43
41
80
80
80
80
81
63
1C
ENDCHAR
STARTCHAR D
ENCODING 68
SWIDTH 779 0
DWIDTH 11 0
BBX 9 10 1 0
BITMAP
FE00
4100
4100
4080
4080
4080
4080
4100
4300
FC00
ENDCHAR
STARTCHAR E
ENCODING 69
SWIDTH 606 0
DWIDTH 8 0
BBX 7 10 1 0
BITMAP
FE
42
42
40
44
7C
44
40
42
FE
ENDCHAR
STARTCHAR F
ENCODING 70
SWIDTH 580 0
DWIDTH 8 0
BBX 7 10 1 0
BITMAP
FE
42
42
40
44
7C
44
40
40
E0
ENDCHAR
STARTCHAR G
ENCODING 71
SWIDTH 734 0
DWIDTH 10 0
BBX 9 10 1 0
BITMAP
1C00
6300
4100
8000
8000
8780
8100
4100
6100
1E00
ENDCHAR
STARTCHAR H
ENCODING 72
SWIDTH 798 0
DWIDTH 11 0
BBX 9 10 1 0
BITMAP
E380
4100
4100
4100
4100
7F00
4100
4100
4100
E380
ENDCHAR
STARTCHAR I
ENCODING 73
SWIDTH 349 0
DWIDTH 5 0
BBX 3 10 1 0
BITMAP
E0
40
40
40
40
40
40
40
40
E0
ENDCHAR
STARTCHAR J
ENCODING 74
SWIDTH 350 0
DWIDTH 5 0
BBX 4 12 0 -2
BITMAP
70
20
20
20
20
20
20
20
20
20
20
C0
ENDCHAR
STARTCHAR K
ENCODING 75
SWIDTH 658 0
DWIDTH 9 0
BBX 9 10 1 0
BITMAP
E780
4200
4400
5800
6000
5000
4800
4400
4200
E180
ENDCHAR
STARTCHAR L
ENCODING 76
SWIDTH 568 0
DWIDTH 8 0
BBX 7 10 1 0
BITMAP
E0
40
40
40
40
40
40
42
42
FC
ENDCHAR
STARTCHAR M
ENCODING 77
SWIDTH 944 0
DWIDTH 13 0
BBX 11 10 1 0
BITMAP
E060
6040
50C0
5140
5140
4940
4A40
4440
4440
E4E0
ENDCHAR
STARTCHAR N
ENCODING 78
SWIDTH 780 0
DWIDTH 11 0
BBX 9 10 1 0
BITMAP
C380
6100
5100
5100
4900
4900
4500
4300
4300
E100
ENDCHAR
STARTCHAR O
ENCODING 79
SWIDTH 762 0
DWIDTH 11 0
BBX 9 10 1 0
BITMAP
3E00
4100
4100
8080
8080
8080
8080
4100
4100
3E00
ENDCHAR
STARTCHAR P
ENCODING 80
SWIDTH 600 0
DWIDTH 8 0
BBX 7 10 1 0
BITMAP
F8
44
42
42
44
78
40
40
40
E0
ENDCHAR
STARTCHAR Q
ENCODING 81
SWIDTH 762 0
DWIDTH 11 0
BBX 9 13 1 -3
BITMAP
3E00
4100
4100
8080
8080
8080
8080
4100
4100
3E00
0400
0200
0180
ENDCHAR
STARTCHAR R
ENCODING 82
SWIDTH 644 0
DWIDTH 9 0
BBX 8 10 1 0
BITMAP
F8
44
42
42
44
78
44
42
42
E1
ENDCHAR
STARTCHAR S
ENCODING 83
SWIDTH 541 0
DWIDTH 8 0
BBX 6 10 1 0
BITMAP
30
CC
84
80
60
38
84
84
8C
70
ENDCHAR
STARTCHAR T
ENCODING 84
SWIDTH 621 0
DWIDTH 9 0
BBX 9 10 0 0
BITMAP
FF80
8880
8880
0800
0800
0800
0800
0800
0800
3E00
ENDCHAR
STARTCHAR U
ENCODING 85
SWIDTH 791 0
DWIDTH 11 0
BBX 9 10 1 0
BITMAP
E380
4100
4100
4100
4100
4100
4100
4100
2200
1C00
ENDCHAR
STARTCHAR V
ENCODING 86
SWIDTH 634 0
DWIDTH 9 0
BBX 10 10 0 0
BITMAP
F1C0
2080
2100
2100
1100
1200
1200
0C00
0800
0800
ENDCHAR
STARTCHAR W
ENCODING 87
SWIDTH 940 0
DWIDTH 13 0
BBX 14 10 0 0
BITMAP
E01C
4208
4208
4510
2510
2490
2490
28A0
1860
1040
ENDCHAR
STARTCHAR X
ENCODING 88
SWIDTH 624 0
DWIDTH 9 0
BBX 9 10 0 0
BITMAP
F380
2100
2200
1400
0800
1800
1400
2200
4200
E780
ENDCHAR
STARTCHAR Y
ENCODING 89
SWIDTH 588 0
DWIDTH 8 0
BBX 9 10 0 0
BITMAP
F380
2100
2200
1200
1400
0800
0800
0800
0800
1E00
ENDCHAR
STARTCHAR Z
ENCODING 90
SWIDTH 610 0
DWIDTH 8 0
BBX 9 10 0 0
BITMAP
7F80
4100
4200
0400
0400
0800
1000
2080
4080
FF80
ENDCHAR
STARTCHAR bracketleft
ENCODING 91
SWIDTH 330 0
DWIDTH 5 0
BBX 2 12 2 -2
BITMAP
C0
80
80
80
80
80
80
80
80
80
80
C0
ENDCHAR
STARTCHAR backslash
ENCODING 92
SWIDTH 460 0
DWIDTH 6 0
BBX 4 10 1 0
BITMAP
80
80
40
40
40
20
20
20
10
10
ENDCHAR
STARTCHAR bracketright
ENCODING 93
SWIDTH 330 0
DWIDTH 5 0
BBX 2 12 1 -2
BITMAP
C0
40
40
40
40
40
40
40
40
40
40
C0
ENDCHAR
STARTCHAR asciicircum
ENCODING 94
SWIDTH 570 0
DWIDTH 8 0
BBX 6 6 1 3
BITMAP
10
30
48
48
48
84
ENDCHAR
STARTCHAR underscore
ENCODING 95
SWIDTH 500 0
DWIDTH 7 0
BBX 7 1 0 -2
BITMAP
FE
ENDCHAR
STARTCHAR grave
ENCODING 96
SWIDTH 400 0
DWIDTH 6 0
BBX 3 3 1 7
BITMAP
80
40
20
ENDCHAR
STARTCHAR a
ENCODING 97
SWIDTH 523 0
DWIDTH 7 0
BBX 6 7 1 0
BITMAP
70
88
08
78
88
98
64
ENDCHAR
STARTCHAR b
ENCODING 98
SWIDTH 598 0
DWIDTH 8 0
BBX 7 10 0 0
BITMAP
40
C0
40
5C
62
42
42
42
44
78
ENDCHAR
STARTCHAR c
ENCODING 99
SWIDTH 496 0
DWIDTH 7 0
BBX 5 7 1 0
BITMAP
30
48
80
80
80
48
30
ENDCHAR
STARTCHAR d
ENCODING 100
SWIDTH 598 0
DWIDTH 8 0
BBX 7 10 1 0
BITMAP
04
0C
04
3C
44
84
84
84
4C
36
ENDCHAR
STARTCHAR e
ENCODING 101
SWIDTH 514 0
DWIDTH 7 0
BBX 5 7 1 0
BITMAP
30
48
88
F0
80
88
70
ENDCHAR
STARTCHAR f
ENCODING 102
SWIDTH 319 0
DWIDTH 4 0
BBX 5 10 1 0
BITMAP
20
58
40
F0
40
40
40
40
40
E0
ENDCHAR
STARTCHAR g
ENCODING 103
SWIDTH 520 0
DWIDTH 7 0
BBX 6 10 1 -3
BITMAP
74
88
88
88
70
80
78
84
8C
70
ENDCHAR
STARTCHAR h
ENCODING 104
SWIDTH 607 0
DWIDTH 8 0
BBX 8 10 0 0
BITMAP
40
C0
40
5C
62
42
42
42
42
E7
ENDCHAR
STARTCHAR i
ENCODING 105
SWIDTH 291 0
DWIDTH 4 0
BBX 3 10 1 0
BITMAP
40
40
00
40
C0
40
40
40
40
E0
ENDCHAR
STARTCHAR j
ENCODING 106
SWIDTH 280 0
DWIDTH 4 0
BBX 3 13 0 -3
BITMAP
20
20
00
20
60
20
20
20
20
20
20
40
80
ENDCHAR
STARTCHAR k
ENCODING 107
SWIDTH 524 0
DWIDTH 7 0
BBX 7 10 0 0
BITMAP
40
C0
40
44
58
60
60
50
48
E6
ENDCHAR
STARTCHAR l
ENCODING 108
SWIDTH 279 0
DWIDTH 4 0
BBX 3 10 0 0
BITMAP
40
C0
40
40
40
40
40
40
40
E0
ENDCHAR
STARTCHAR m
ENCODING 109
SWIDTH 923 0
DWIDTH 13 0
BBX 11 7 1 0
BITMAP
5B80
E440
4440
4440
4440
4440
EEE0
ENDCHAR
STARTCHAR n
ENCODING 110
SWIDTH 619 0
DWIDTH 9 0
BBX 7 7 1 0
BITMAP
58
E4
44
44
44
44
EE
ENDCHAR
STARTCHAR o
ENCODING 111
SWIDTH 577 0
DWIDTH 8 0
BBX 6 7 1 0
BITMAP
30
48
84
84
84
48
30
ENDCHAR
STARTCHAR p
ENCODING 112
SWIDTH 608 0
DWIDTH 8 0
BBX 7 10 1 -3
BITMAP
5C
E2
42
42
42
44
78
40
40
E0
ENDCHAR
STARTCHAR q
ENCODING 113
SWIDTH 591 0
DWIDTH 8 0
BBX 7 10 1 -3
BITMAP
3C
44
84
84
84
8C
74
04
04
0E
ENDCHAR
STARTCHAR r
ENCODING 114
SWIDTH 389 0
DWIDTH 5 0
BBX 5 7 1 0
BITMAP
78
C0
40
40
40
40
E0
ENDCHAR
STARTCHAR s
ENCODING 115
SWIDTH 436 0
DWIDTH 6 0
BBX 4 7 1 0
BITMAP
60
90
80
60
10
90
60
ENDCHAR
STARTCHAR t
ENCODING 116
SWIDTH 344 0
DWIDTH 5 0
BBX 4 9 1 0
BITMAP
40
40
F0
40
40
40
40
40
30
ENDCHAR
STARTCHAR u
ENCODING 117
SWIDTH 606 0
DWIDTH 8 0
BBX 8 7 0 0
BITMAP
42
C6
42
42
42
46
3B
ENDCHAR
STARTCHAR v
ENCODING 118
SWIDTH 504 0
DWIDTH 7 0
BBX 7 7 0 0
BITMAP
EE
44
44
28
28
28
10
ENDCHAR
STARTCHAR w
ENCODING 119
SWIDTH 768 0
DWIDTH 11 0
BBX 11 7 0 0
BITMAP
E0E0
4440
4A40
2A80
2A80
2980
1100
ENDCHAR
STARTCHAR x
ENCODING 120
SWIDTH 486 0
DWIDTH 7 0
BBX 7 7 0 0
BITMAP
EE
44
28
10
28
48
EE
ENDCHAR
STARTCHAR y
ENCODING 121
SWIDTH 506 0
DWIDTH 7 0
BBX 7 10 0 -3
BITMAP
EE
44
44
28
28
10
10
10
20
40
ENDCHAR
STARTCHAR z
ENCODING 122
SWIDTH 480 0
DWIDTH 7 0
BBX 7 7 0 0
BITMAP
7E
44
08
08
10
22
FE
ENDCHAR
STARTCHAR braceleft
ENCODING 123
SWIDTH 340 0
DWIDTH 5 0
BBX 3 12 1 -2
BITMAP
20
40
40
40
40
80
40
40
40
40
40
20
ENDCHAR
STARTCHAR bar
ENCODING 124
SWIDTH 228 0
DWIDTH 3 0
BBX 1 10 1 0
BITMAP
80
80
80
80
80
80
80
80
80
80
ENDCHAR
STARTCHAR braceright
ENCODING 125
SWIDTH 340 0
DWIDTH 5 0
BBX 3 12 1 -2
BITMAP
80
40
40
40
40
20
40
40
40
40
40
80
ENDCHAR
STARTCHAR asciitilde
ENCODING 126
SWIDTH 570 0
DWIDTH 8 0
BBX 6 2 1 2
BITMAP
64
98
ENDCHAR
STARTCHAR space
ENCODING 160
SWIDTH 225 0
DWIDTH 3 0
BBX 0 0 0 0
BITMAP
ENDCHAR
STARTCHAR exclamdown
ENCODING 161
SWIDTH 242 0
DWIDTH 3 0
BBX 1 10 1 -3
BITMAP
80
80
00
80
80
80
80
80
80
80
ENDCHAR
STARTCHAR cent
ENCODING 162
SWIDTH 530 0
DWIDTH 7 0
BBX 6 9 1 0
BITMAP
20
70
A8
A0
A0
AC
70
20
20
ENDCHAR
STARTCHAR sterling
ENCODING 163
SWIDTH 530 0
DWIDTH 7 0
BBX 7 9 0 0
BITMAP
38
44
40
20
FC
10
10
22
7C
ENDCHAR
STARTCHAR currency
ENCODING 164
SWIDTH 530 0
DWIDTH 7 0
BBX 6 7 1 1
BITMAP
B4
48
84
84
84
48
B4
ENDCHAR
STARTCHAR yen
ENCODING 165
SWIDTH 530 0
DWIDTH 7 0
BBX 7 9 0 0
BITMAP
E6
42
24
28
7E
10
7E
10
7C
ENDCHAR
STARTCHAR brokenbar
ENCODING 166
SWIDTH 228 0
DWIDTH 3 0
BBX 1 10 1 0
BITMAP
80
80
80
80
00
80
80
80
80
80
ENDCHAR
STARTCHAR section
ENCODING 167
SWIDTH 554 0
DWIDTH 8 0
BBX 7 12 0 -2
BITMAP
18
24
20
50
88
84
62
12
0A
04
64
18
ENDCHAR
STARTCHAR dieresis
ENCODING 168
SWIDTH 400 0
DWIDTH 6 0
BBX 5 1 0 8
BITMAP
D8
ENDCHAR
STARTCHAR copyright
ENCODING 169
SWIDTH 818 0
DWIDTH 11 0
BBX 10 10 1 0
BITMAP
3C00
4300
9880
A640
A040
A040
A240
9C80
4100
3E00
ENDCHAR
STARTCHAR ordfeminine
ENCODING 170
SWIDTH 390 0
DWIDTH 5 0
BBX 4 4 1 4
BITMAP
40
E0
A0
50
ENDCHAR
STARTCHAR guillemotleft
ENCODING 171
SWIDTH 442 0
DWIDTH 6 0
BBX 5 5 1 1
BITMAP
48
50
90
50
48
ENDCHAR
STARTCHAR logicalnot
ENCODING 172
SWIDTH 570 0
DWIDTH 8 0
BBX 7 4 0 1
BITMAP
FE
02
02
02
ENDCHAR
STARTCHAR hyphen
ENCODING 173
SWIDTH 392 0
DWIDTH 5 0
BBX 3 1 1 3
BITMAP
E0
ENDCHAR
STARTCHAR registered
ENCODING 174
SWIDTH 818 0
DWIDTH 11 0
BBX 10 10 1 0
BITMAP
1E00
2100
5C80
9240
9240
9C40
9240
5880
4100
3E00
ENDCHAR
STARTCHAR macron
ENCODING 175
SWIDTH 400 0
DWIDTH 6 0
BBX 4 1 1 8
BITMAP
F0
ENDCHAR
STARTCHAR degree
ENCODING 176
SWIDTH 350 0
DWIDTH 5 0
BBX 4 4 0 5
BITMAP
60
90
90
60
ENDCHAR
STARTCHAR plusminus
ENCODING 177
SWIDTH 570 0
DWIDTH 8 0
BBX 7 8 0 0
BITMAP
10
10
10
FE
10
10
00
FE
ENDCHAR
STARTCHAR twosuperior
ENCODING 178
SWIDTH 380 0
DWIDTH 5 0
BBX 3 5 1 4
BITMAP
40
A0
20
C0
E0
ENDCHAR
STARTCHAR threesuperior
ENCODING 179
SWIDTH 380 0
DWIDTH 5 0
BBX 5 5 0 4
BITMAP
60
10
70
08
F0
ENDCHAR
STARTCHAR acute
ENCODING 180
SWIDTH 400 0
DWIDTH 6 0
BBX 3 3 2 7
BITMAP
20
40
80
ENDCHAR
STARTCHAR mu
ENCODING 181
SWIDTH 606 0
DWIDTH 8 0
BBX 8 10 0 -3
BITMAP
42
C6
42
42
42
46
7B
40
40
40
ENDCHAR
STARTCHAR paragraph
ENCODING 182
SWIDTH 555 0
DWIDTH 8 0
BBX 6 12 1 -2
BITMAP
2C
68
68
E8
68
68
28
08
08
08
08
18
ENDCHAR
STARTCHAR periodcentered
ENCODING 183
SWIDTH 265 0
DWIDTH 4 0
BBX 1 1 1 3
BITMAP
80
ENDCHAR
STARTCHAR cedilla
ENCODING 184
SWIDTH 400 0
DWIDTH 6 0
BBX 2 3 3 -3
BITMAP
80
40
80
ENDCHAR
STARTCHAR onesuperior
ENCODING 185
SWIDTH 380 0
DWIDTH 5 0
BBX 3 5 1 4
BITMAP
C0
40
40
40
E0
ENDCHAR
STARTCHAR ordmasculine
ENCODING 186
SWIDTH 398 0
DWIDTH 6 0
BBX 4 4 1 4
BITMAP
60
90
90
60
ENDCHAR
STARTCHAR guillemotright
ENCODING 187
SWIDTH 442 0
DWIDTH 6 0
BBX 5 5 1 1
BITMAP
90
50
48
50
90
ENDCHAR
STARTCHAR onequarter
ENCODING 188
SWIDTH 860 0
DWIDTH 12 0
BBX 10 10 1 0
BITMAP
0100
C100
4200
4200
4480
E980
0A80
1280
23C0
21C0
ENDCHAR
STARTCHAR onehalf
ENCODING 189
SWIDTH 860 0
DWIDTH 12 0
BBX 10 10 1 0
BITMAP
0100
C100
4200
4400
4980
EA40
0840
1080
2300
23C0
ENDCHAR
STARTCHAR threequarters
ENCODING 190
SWIDTH 860 0
DWIDTH 12 0
BBX 10 10 1 0
BITMAP
0100
E100
1100
6200
1480
E580
0980
0A80
13C0
31C0
ENDCHAR
STARTCHAR questiondown
ENCODING 191
SWIDTH 389 0
DWIDTH 5 0
BBX 4 10 1 -3
BITMAP
40
40
00
40
20
20
40
90
90
60
ENDCHAR
STARTCHAR Agrave
ENCODING 192
SWIDTH 635 0
DWIDTH 9 0
BBX 9 13 0 0
BITMAP
1000
3800
0400
0800
1400
1400
1400
2200
1E00
2200
4100
4100
E380
ENDCHAR
STARTCHAR Aacute
ENCODING 193
SWIDTH 635 0
DWIDTH 9 0
BBX 9 12 0 0
BITMAP
0C00
1000
0800
1400
1400
1400
2200
1E00
2200
4100
4100
E380
ENDCHAR
STARTCHAR Acircumflex
ENCODING 194
SWIDTH 635 0
DWIDTH 9 0
BBX 9 12 0 0
BITMAP
1C00
2200
0800
1800
1400
1400
2400
1C00
2200
4200
4100
E380
ENDCHAR
STARTCHAR Atilde
ENCODING 195
SWIDTH 635 0
DWIDTH 9 0
BBX 9 12 0 0
BITMAP
1B00
2400
0000
1800
1400
1400
2400
1C00
2200
4200
4100
E380
ENDCHAR
STARTCHAR Adieresis
ENCODING 196
SWIDTH 635 0
DWIDTH 9 0
BBX 9 11 0 0
BITMAP
2400
1000
2800
2800
2400
2400
3C00
4200
4100
4100
C780
ENDCHAR
STARTCHAR Aring
ENCODING 197
SWIDTH 627 0
DWIDTH 9 0
BBX 9 12 0 0
BITMAP
0800
1400
0800
0800
1400
1400
2400
1C00
2200
4100
4100
E380
ENDCHAR
STARTCHAR AE
ENCODING 198
SWIDTH 876 0
DWIDTH 12 0
BBX 13 10 -1 0
BITMAP
0FF8
0508
0508
0900
0910
1FF0
1110
2100
4108
E3F8
ENDCHAR
STARTCHAR Ccedilla
ENCODING 199
SWIDTH 680 0
DWIDTH 9 0
BBX 8 13 1 -3
BITMAP
1E
21
41
80
80
80
80
41
61
1E
08
08
0C
ENDCHAR
STARTCHAR Egrave
ENCODING 200
SWIDTH 606 0
DWIDTH 8 0
BBX 7 13 1 0
BITMAP
40
70
00
FE
42
42
40
44
7C
44
40
42
FE
ENDCHAR
STARTCHAR Eacute
ENCODING 201
SWIDTH 606 0
DWIDTH 8 0
BBX 7 12 1 0
BITMAP
08
30
FE
42
42
40
44
7C
44
40
42
FE
ENDCHAR
STARTCHAR Ecircumflex
ENCODING 202
SWIDTH 606 0
DWIDTH 8 0
BBX 7 12 1 0
BITMAP
18
60
FE
42
42
40
44
7C
44
40
42
FE
ENDCHAR
STARTCHAR Edieresis
ENCODING 203
SWIDTH 606 0
DWIDTH 8 0
BBX 7 11 1 0
BITMAP
48
FE
42
42
40
44
7C
44
40
42
FE
ENDCHAR
STARTCHAR Igrave
ENCODING 204
SWIDTH 349 0
DWIDTH 5 0
BBX 3 13 1 0
BITMAP
80
80
00
E0
40
40
40
40
40
40
40
40
E0
ENDCHAR
STARTCHAR Iacute
ENCODING 205
SWIDTH 349 0
DWIDTH 5 0
BBX 3 12 1 0
BITMAP
60
00
E0
40
40
40
40
40
40
40
40
E0
ENDCHAR
STARTCHAR Icircumflex
ENCODING 206
SWIDTH 349 0
DWIDTH 5 0
BBX 3 12 1 0
BITMAP
E0
00
E0
40
40
40
40
40
40
40
40
E0
ENDCHAR
STARTCHAR Idieresis
ENCODING 207
SWIDTH 349 0
DWIDTH 5 0
BBX 4 11 0 0
BITMAP
90
60
20
20
20
20
20
20
20
20
70
ENDCHAR
STARTCHAR Eth
ENCODING 208
SWIDTH 785 0
DWIDTH 11 0
BBX 9 10 1 0
BITMAP
FE00
4100
4100
4080
4080
F080
4080
4080
4300
FC00
ENDCHAR
STARTCHAR Ntilde
ENCODING 209
SWIDTH 780 0
DWIDTH 11 0
BBX 9 12 1 0
BITMAP
7600
0800
C380
6100
5100
5100
4900
4900
4500
4300
4300
E100
ENDCHAR
STARTCHAR Ograve
ENCODING 210
SWIDTH 762 0
DWIDTH 11 0
BBX 9 13 1 0
BITMAP
2000
1000
0C00
3E00
4100
4100
8080
8080
8080
8080
4100
4100
3E00
ENDCHAR
STARTCHAR Oacute
ENCODING 211
SWIDTH 762 0
DWIDTH 11 0
BBX 9 12 1 0
BITMAP
0400
1800
3E00
4100
4100
8080
8080
8080
8080
4100
4100
3E00
ENDCHAR
STARTCHAR Ocircumflex
ENCODING 212
SWIDTH 762 0
DWIDTH 11 0
BBX 9 12 1 0
BITMAP
0800
3600
3E00
4100
4100
8080
8080
8080
8080
4100
4100
3E00
ENDCHAR
STARTCHAR Otilde
ENCODING 213
SWIDTH 762 0
DWIDTH 11 0
BBX 9 12 1 0
BITMAP
3A00
0600
3E00
4100
4100
8080
8080
8080
8080
4100
4100
3E00
ENDCHAR
STARTCHAR Odieresis
ENCODING 214
SWIDTH 762 0
DWIDTH 11 0
BBX 9 11 1 0
BITMAP
2400
3E00
4100
4100
8080
8080
8080
8080
4100
4100
3E00
ENDCHAR
STARTCHAR multiply
ENCODING 215
SWIDTH 570 0
DWIDTH 8 0
BBX 6 6 1 0
BITMAP
84
48
30
30
48
84
ENDCHAR
STARTCHAR Oslash
ENCODING 216
SWIDTH 762 0
DWIDTH 11 0
BBX 9 10 1 0
BITMAP
3D00
4300
4300
8480
8880
8880
9080
6100
6100
5E00
ENDCHAR
STARTCHAR Ugrave
ENCODING 217
SWIDTH 791 0
DWIDTH 11 0
BBX 9 13 1 0
BITMAP
2000
3000
0800
E380
4100
4100
4100
4100
4100
4100
4100
2200
1C00
ENDCHAR
STARTCHAR Uacute
ENCODING 218
SWIDTH 791 0
DWIDTH 11 0
BBX 9 12 1 0
BITMAP
0600
0800
E380
4100
4100
4100
4100
4100
4100
4100
2200
1C00
ENDCHAR
STARTCHAR Ucircumflex
ENCODING 219
SWIDTH 791 0
DWIDTH 11 0
BBX 9 12 1 0
BITMAP
0800
1400
C180
4100
4100
4100
4100
4100
4100
4100
2200
1C00
ENDCHAR
STARTCHAR Udieresis
ENCODING 220
SWIDTH 791 0
DWIDTH 11 0
BBX 9 11 1 0
BITMAP
1400
E380
4100
4100
4100
4100
4100
4100
4100
2200
1C00
ENDCHAR
STARTCHAR Yacute
ENCODING 221
SWIDTH 588 0
DWIDTH 8 0
BBX 9 12 0 0
BITMAP
0200
0400
F180
2100
2200
1200
1400
0800
0800
0800
0800
1E00
ENDCHAR
STARTCHAR Thorn
ENCODING 222
SWIDTH 593 0
DWIDTH 8 0
BBX 6 10 1 0
BITMAP
E0
40
70
4C
44
44
4C
70
40
E0
ENDCHAR
STARTCHAR germandbls
ENCODING 223
SWIDTH 601 0
DWIDTH 8 0
BBX 8 10 0 0
BITMAP
1C
22
42
44
48
44
46
45
41
EE
ENDCHAR
STARTCHAR agrave
ENCODING 224
SWIDTH 523 0
DWIDTH 7 0
BBX 6 10 1 0
BITMAP
40
30
00
70
88
08
78
88
98
64
ENDCHAR
STARTCHAR aacute
ENCODING 225
SWIDTH 523 0
DWIDTH 7 0
BBX 6 10 1 0
BITMAP
18
20
00
70
88
08
78
88
98
64
ENDCHAR
STARTCHAR acircumflex
ENCODING 226
SWIDTH 523 0
DWIDTH 7 0
BBX 6 10 1 0
BITMAP
20
58
00
70
88
08
78
88
98
64
ENDCHAR
STARTCHAR atilde
ENCODING 227
SWIDTH 523 0
DWIDTH 7 0
BBX 6 10 1 0
BITMAP
08
F0
00
70
88
08
78
88
98
64
ENDCHAR
STARTCHAR adieresis
ENCODING 228
SWIDTH 523 0
DWIDTH 7 0
BBX 6 9 1 0
BITMAP
48
00
70
88
08
78
88
98
64
ENDCHAR
STARTCHAR aring
ENCODING 229
SWIDTH 523 0
DWIDTH 7 0
BBX 6 11 1 0
BITMAP
20
50
50
20
70
88
08
78
88
98
64
ENDCHAR
STARTCHAR ae
ENCODING 230
SWIDTH 797 0
DWIDTH 11 0
BBX 9 7 1 0
BITMAP
7300
8C80
8880
3F00
C800
9880
6700
ENDCHAR
STARTCHAR ccedilla
ENCODING 231
SWIDTH 496 0
DWIDTH 7 0
BBX 5 10 1 -3
BITMAP
30
48
80
80
80
48
30
20
20
30
ENDCHAR
STARTCHAR egrave
ENCODING 232
SWIDTH 514 0
DWIDTH 7 0
BBX 5 10 1 0
BITMAP
40
30
00
30
48
88
F0
80
88
70
ENDCHAR
STARTCHAR eacute
ENCODING 233
SWIDTH 514 0
DWIDTH 7 0
BBX 5 10 1 0
BITMAP
10
60
00
30
48
88
F0
80
88
70
ENDCHAR
STARTCHAR ecircumflex
ENCODING 234
SWIDTH 514 0
DWIDTH 7 0
BBX 5 10 1 0
BITMAP
20
50
00
30
48
88
F0
80
88
70
ENDCHAR
STARTCHAR edieresis
ENCODING 235
SWIDTH 514 0
DWIDTH 7 0
BBX 5 9 1 0
BITMAP
48
00
30
48
88
F0
80
88
70
ENDCHAR
STARTCHAR igrave
ENCODING 236
SWIDTH 291 0
DWIDTH 4 0
BBX 3 10 1 0
BITMAP
80
60
00
40
C0
40
40
40
40
E0
ENDCHAR
STARTCHAR iacute
ENCODING 237
SWIDTH 291 0
DWIDTH 4 0
BBX 3 10 1 0
BITMAP
20
C0
00
40
C0
40
40
40
40
E0
ENDCHAR
STARTCHAR icircumflex
ENCODING 238
SWIDTH 291 0
DWIDTH 4 0
BBX 3 10 1 0
BITMAP
40
A0
00
40
C0
40
40
40
40
E0
ENDCHAR
STARTCHAR idieresis
ENCODING 239
SWIDTH 291 0
DWIDTH 4 0
BBX 4 9 0 0
BITMAP
D0
00
20
60
20
20
20
20
70
ENDCHAR
STARTCHAR eth
ENCODING 240
SWIDTH 577 0
DWIDTH 8 0
BBX 6 10 1 0
BITMAP
40
48
70
38
44
84
84
84
48
30
ENDCHAR
STARTCHAR ntilde
ENCODING 241
SWIDTH 619 0
DWIDTH 9 0
BBX 7 10 1 0
BITMAP
04
78
00
58
E4
44
44
44
44
EE
ENDCHAR
STARTCHAR ograve
ENCODING 242
SWIDTH 577 0
DWIDTH 8 0
BBX 6 10 1 0
BITMAP
40
30
00
30
48
84
84
84
48
30
ENDCHAR
STARTCHAR oacute
ENCODING 243
SWIDTH 577 0
DWIDTH 8 0
BBX 6 10 1 0
BITMAP
08
30
00
30
48
84
84
84
48
30
ENDCHAR
STARTCHAR ocircumflex
ENCODING 244
SWIDTH 577 0
DWIDTH 8 0
BBX 6 10 1 0
BITMAP
30
48
00
30
48
84
84
84
48
30
ENDCHAR
STARTCHAR otilde
ENCODING 245
SWIDTH 577 0
DWIDTH 8 0
BBX 6 10 1 0
BITMAP
04
78
80
30
48
84
84
84
48
30
ENDCHAR
STARTCHAR odieresis
ENCODING 246
SWIDTH 577 0
DWIDTH 8 0
BBX 6 9 1 0
BITMAP
48
00
30
48
84
84
84
48
30
ENDCHAR
STARTCHAR divide
ENCODING 247
SWIDTH 570 0
DWIDTH 8 0
BBX 6 5 1 1
BITMAP
20
00
FC
00
20
ENDCHAR
STARTCHAR oslash
ENCODING 248
SWIDTH 577 0
DWIDTH 8 0
BBX 6 7 1 0
BITMAP
34
48
94
A4
A4
48
B0
ENDCHAR
STARTCHAR ugrave
ENCODING 249
SWIDTH 606 0
DWIDTH 8 0
BBX 8 11 0 0
BITMAP
20
10
08
00
42
C6
42
42
42
46
3B
ENDCHAR
STARTCHAR uacute
ENCODING 250
SWIDTH 606 0
DWIDTH 8 0
BBX 8 11 0 0
BITMAP
04
04
18
00
42
C6
42
42
42
46
3B
ENDCHAR
STARTCHAR ucircumflex
ENCODING 251
SWIDTH 606 0
DWIDTH 8 0
BBX 8 10 0 0
BITMAP
08
34
00
42
C6
42
42
42
46
3B
ENDCHAR
STARTCHAR udieresis
ENCODING 252
SWIDTH 606 0
DWIDTH 8 0
BBX 8 9 0 0
BITMAP
24
00
42
C6
42
42
42
46
3B
ENDCHAR
STARTCHAR yacute
ENCODING 253
SWIDTH 506 0
DWIDTH 7 0
BBX 7 13 0 -3
BITMAP
0C
10
00
EE
44
44
28
28
10
10
10
20
40
ENDCHAR
STARTCHAR thorn
ENCODING 254
SWIDTH 606 0
DWIDTH 8 0
BBX 7 13 1 -3
BITMAP
C0
40
40
5C
62
42
42
42
64
58
40
40
E0
ENDCHAR
STARTCHAR ydieresis
ENCODING 255
SWIDTH 506 0
DWIDTH 7 0
BBX 7 12 0 -3
BITMAP
24
00
EE
44
44
28
28
30
10
10
20
40
ENDCHAR
STARTCHAR Amacron
ENCODING 256
SWIDTH 635 0
DWIDTH 9 0
BBX 9 12 0 0
BITMAP
3C00
0000
0800
1800
1400
1400
2400
1C00
2200
4200
4100
E380
ENDCHAR
STARTCHAR amacron
ENCODING 257
SWIDTH 523 0
DWIDTH 7 0
BBX 6 9 1 0
BITMAP
78
00
70
88
08
78
88
98
64
ENDCHAR
STARTCHAR Abreve
ENCODING 258
SWIDTH 635 0
DWIDTH 9 0
BBX 9 14 0 0
BITMAP
2400
2400
1800
0000
0800
1800
1400
1400
2400
1C00
2200
4200
4100
E380
ENDCHAR
STARTCHAR abreve
ENCODING 259
SWIDTH 523 0
DWIDTH 7 0
BBX 6 11 1 0
BITMAP
48
48
30
00
70
88
08
78
88
98
64
ENDCHAR
STARTCHAR Aogonek
ENCODING 260
SWIDTH 635 0
DWIDTH 9 0
BBX 9 13 0 -3
BITMAP
0800
1800
1400
1400
2400
1C00
2200
4200
4100
EB80
1000
1000
0C00
ENDCHAR
STARTCHAR aogonek
ENCODING 261
SWIDTH 523 0
DWIDTH 7 0
BBX 6 10 1 -3
BITMAP
70
88
08
78
88
98
74
20
20
18
ENDCHAR
STARTCHAR Cacute
ENCODING 262
SWIDTH 684 0
DWIDTH 9 0
BBX 8 14 1 0
BITMAP
02
04
08
00
3C
43
41
80
80
80
80
81
63
1C
ENDCHAR
STARTCHAR cacute
ENCODING 263
SWIDTH 496 0
DWIDTH 7 0
BBX 5 11 1 0
BITMAP
08
10
20
00
30
48
80
80
80
48
30
ENDCHAR
STARTCHAR Ccircumflex
ENCODING 264
SWIDTH 684 0
DWIDTH 9 0
BBX 8 13 1 0
BITMAP
18
24
00
3C
43
41
80
80
80
80
81
63
1C
ENDCHAR
STARTCHAR ccircumflex
ENCODING 265
SWIDTH 496 0
DWIDTH 7 0
BBX 5 10 1 0
BITMAP
30
48
00
30
48
80
80
80
48
30
ENDCHAR
STARTCHAR Cdotaccent
ENCODING 266
SWIDTH 684 0
DWIDTH 9 0
BBX 8 12 1 0
BITMAP
08
00
3C
43
41
80
80
80
80
81
63
1C
ENDCHAR
STARTCHAR cdotaccent
ENCODING 267
SWIDTH 496 0
DWIDTH 7 0
BBX 5 9 1 0
BITMAP
20
00
30
48
80
80
80
48
30
ENDCHAR
STARTCHAR Ccaron
ENCODING 268
SWIDTH 684 0
DWIDTH 9 0
BBX 8 14 1 0
BITMAP
12
0C
08
00
3C
43
41
80
80
80
80
81
63
1C
ENDCHAR
STARTCHAR ccaron
ENCODING 269
SWIDTH 496 0
DWIDTH 7 0
BBX 5 11 1 0
BITMAP
48
30
20
00
30
48
80
80
80
48
30
ENDCHAR
STARTCHAR Dcaron
ENCODING 270
SWIDTH 779 0
DWIDTH 11 0
BBX 9 14 1 0
BITMAP
2400
1800
1000
0000
FE00
4100
4100
4080
4080
4080
4080
4100
4300
FC00
ENDCHAR
STARTCHAR dcaron
ENCODING 271
SWIDTH 846 0
DWIDTH 12 0
BBX 10 10 1 0
BITMAP
04C0
0C40
0440
3C80
4400
8400
8400
8400
4C00
3600
ENDCHAR
STARTCHAR Dcroat
ENCODING 272
SWIDTH 785 0
DWIDTH 11 0
BBX 9 10 1 0
BITMAP
FE00
4100
4100
4080
4080
F080
4080
4080
4300
FC00
ENDCHAR
STARTCHAR dcroat
ENCODING 273
SWIDTH 598 0
DWIDTH 8 0
BBX 7 10 1 0
BITMAP
04
0E
04
3C
44
84
84
84
4C
36
ENDCHAR
STARTCHAR Emacron
ENCODING 274
SWIDTH 606 0
DWIDTH 8 0
BBX 7 12 1 0
BITMAP
3C
00
FE
42
42
40
44
7C
44
40
42
FE
ENDCHAR
STARTCHAR emacron
ENCODING 275
SWIDTH 514 0
DWIDTH 7 0
BBX 5 9 1 0
BITMAP
78
00
30
48
88
F0
80
88
70
ENDCHAR
STARTCHAR Ebreve
ENCODING 276
SWIDTH 606 0
DWIDTH 8 0
BBX 7 14 1 0
BITMAP
24
24
18
00
FE
42
42
40
44
7C
44
40
42
FE
ENDCHAR
STARTCHAR ebreve
ENCODING 277
SWIDTH 514 0
DWIDTH 7 0
BBX 5 11 1 0
BITMAP
48
48
30
00
30
48
88
F0
80
88
70
ENDCHAR
STARTCHAR Edotaccent
ENCODING 278
SWIDTH 606 0
DWIDTH 8 0
BBX 7 12 1 0
BITMAP
10
00
FE
42
42
40
44
7C
44
40
42
FE
ENDCHAR
STARTCHAR edotaccent
ENCODING 279
SWIDTH 514 0
DWIDTH 7 0
BBX 5 9 1 0
BITMAP
20
00
30
48
88
F0
80
88
70
ENDCHAR
STARTCHAR Eogonek
ENCODING 280
SWIDTH 606 0
DWIDTH 8 0
BBX 7 13 1 -3
BITMAP
FE
42
42
40
44
7C
44
40
42
FE
20
20
18
ENDCHAR
STARTCHAR eogonek
ENCODING 281
SWIDTH 514 0
DWIDTH 7 0
BBX 5 10 1 -3
BITMAP
30
48
88
F0
80
88
70
40
40
30
ENDCHAR
STARTCHAR Ecaron
ENCODING 282
SWIDTH 606 0
DWIDTH 8 0
BBX 7 14 1 0
BITMAP
24
18
10
00
FE
42
42
40
44
7C
44
40
42
FE
ENDCHAR
STARTCHAR ecaron
ENCODING 283
SWIDTH 514 0
DWIDTH 7 0
BBX 5 11 1 0
BITMAP
48
30
20
00
30
48
88
F0
80
88
70
ENDCHAR
STARTCHAR Gcircumflex
ENCODING 284
SWIDTH 734 0
DWIDTH 10 0
BBX 9 13 1 0
BITMAP
0C00
1200
0000
1C00
6300
4100
8000
8000
8780
8100
4100
6100
1E00
ENDCHAR
STARTCHAR gcircumflex
ENCODING 285
SWIDTH 520 0
DWIDTH 7 0
BBX 6 13 1 -3
BITMAP
30
48
00
74
88
88
88
70
80
78
84
8C
70
ENDCHAR
STARTCHAR Gbreve
ENCODING 286
SWIDTH 734 0
DWIDTH 10 0
BBX 9 14 1 0
BITMAP
1200
1200
0C00
0000
1C00
6300
4100
8000
8000
8780
8100
4100
6100
1E00
ENDCHAR
STARTCHAR gbreve
ENCODING 287
SWIDTH 520 0
DWIDTH 7 0
BBX 6 14 1 -3
BITMAP
48
48
30
00
74
88
88
88
70
80
78
84
8C
70
ENDCHAR
STARTCHAR Gdotaccent
ENCODING 288
SWIDTH 734 0
DWIDTH 10 0
BBX 9 12 1 0
BITMAP
0800
0000
1C00
6300
4100
8000
8000
8780
8100
4100
6100
1E00
ENDCHAR
STARTCHAR gdotaccent
ENCODING 289
SWIDTH 520 0
DWIDTH 7 0
BBX 6 12 1 -3
BITMAP
20
00
74
88
88
88
70
80
78
84
8C
70
ENDCHAR
STARTCHAR Gcommaaccent
ENCODING 290
SWIDTH 734 0
DWIDTH 10 0
BBX 9 15 1 -5
BITMAP
1C00
6300
4100
8000
8000
8780
8100
4100
6100
1E00
0000
0800
0800
0800
1000
ENDCHAR
STARTCHAR gcommaaccent
ENCODING 291
SWIDTH 520 0
DWIDTH 7 0
BBX 6 15 1 -3
BITMAP
10
20
20
30
00
74
88
88
88
70
80
78
84
8C
70
ENDCHAR
STARTCHAR Hcircumflex
ENCODING 292
SWIDTH 798 0
DWIDTH 11 0
BBX 9 13 1 0
BITMAP
0C00
1200
0000
E380
4100
4100
4100
4100
7F00
4100
4100
4100
E380
ENDCHAR
STARTCHAR hcircumflex
ENCODING 293
SWIDTH 607 0
DWIDTH 8 0
BBX 8 13 0 0
BITMAP
60
90
00
40
C0
40
5C
62
42
42
42
42
E7
ENDCHAR
STARTCHAR Hbar
ENCODING 294
SWIDTH 798 0
DWIDTH 11 0
BBX 9 10 1 0
BITMAP
E380
4100
FF80
4100
4100
7F00
4100
4100
4100
E380
ENDCHAR
STARTCHAR hbar
ENCODING 295
SWIDTH 607 0
DWIDTH 8 0
BBX 8 10 0 0
BITMAP
40
F0
40
5C
62
42
42
42
42
E7
ENDCHAR
STARTCHAR Itilde
ENCODING 296
SWIDTH 349 0
DWIDTH 5 0
BBX 5 12 0 0
BITMAP
F8
00
70
20
20
20
20
20
20
20
20
70
ENDCHAR
STARTCHAR itilde
ENCODING 297
SWIDTH 291 0
DWIDTH 4 0
BBX 5 9 0 0
BITMAP
F8
00
20
60
20
20
20
20
70
ENDCHAR
STARTCHAR Imacron
ENCODING 298
SWIDTH 349 0
DWIDTH 5 0
BBX 4 12 1 0
BITMAP
F0
00
E0
40
40
40
40
40
40
40
40
E0
ENDCHAR
STARTCHAR imacron
ENCODING 299
SWIDTH 291 0
DWIDTH 4 0
BBX 4 9 0 0
BITMAP
F0
00
20
60
20
20
20
20
70
ENDCHAR
STARTCHAR Ibreve
ENCODING 300
SWIDTH 349 0
DWIDTH 5 0
BBX 4 14 1 0
BITMAP
90
90
60
00
E0
40
40
40
40
40
40
40
40
E0
ENDCHAR
STARTCHAR ibreve
ENCODING 301
SWIDTH 291 0
DWIDTH 4 0
BBX 4 11 0 0
BITMAP
90
90
60
00
20
60
20
20
20
20
70
ENDCHAR
STARTCHAR Iogonek
ENCODING 302
SWIDTH 349 0
DWIDTH 5 0
BBX 3 13 1 -3
BITMAP
E0
40
40
40
40
40
40
40
40
E0
80
80
60
ENDCHAR
STARTCHAR iogonek
ENCODING 303
SWIDTH 291 0
DWIDTH 4 0
BBX 3 13 1 -3
BITMAP
40
40
00
40
C0
40
40
40
40
E0
80
80
60
ENDCHAR
STARTCHAR Idotaccent
ENCODING 304
SWIDTH 349 0
DWIDTH 5 0
BBX 3 12 1 0
BITMAP
40
00
E0
40
40
40
40
40
40
40
40
E0
ENDCHAR
STARTCHAR dotlessi
ENCODING 305
SWIDTH 291 0
DWIDTH 4 0
BBX 3 7 1 0
BITMAP
40
C0
40
40
40
40
E0
ENDCHAR
STARTCHAR IJ
ENCODING 306
SWIDTH 682 0
DWIDTH 10 0
BBX 8 12 1 -2
BITMAP
E7
42
42
42
42
42
42
42
42
E2
02
0C
ENDCHAR
STARTCHAR ij
ENCODING 307
SWIDTH 556 0
DWIDTH 8 0
BBX 6 13 1 -3
BITMAP
44
44
00
44
CC
44
44
44
44
E4
04
08
10
ENDCHAR
STARTCHAR Jcircumflex
ENCODING 308
SWIDTH 350 0
DWIDTH 5 0
BBX 4 15 0 -2
BITMAP
60
90
00
70
20
20
20
20
20
20
20
20
20
20
C0
ENDCHAR
STARTCHAR jcircumflex
ENCODING 309
SWIDTH 280 0
DWIDTH 4 0
BBX 4 13 0 -3
BITMAP
60
90
00
20
60
20
20
20
20
20
20
40
80
ENDCHAR
STARTCHAR Kcommaaccent
ENCODING 310
SWIDTH 658 0
DWIDTH 9 0
BBX 9 15 1 -5
BITMAP
E780
4200
4400
5800
6000
5000
4800
4400
4200
E180
0000
0800
0800
0800
1000
ENDCHAR
STARTCHAR kcommaaccent
ENCODING 311
SWIDTH 524 0
DWIDTH 7 0
BBX 7 15 0 -5
BITMAP
40
C0
40
44
58
60
60
50
48
E6
00
10
10
10
20
ENDCHAR
STARTCHAR kgreenlandic
ENCODING 312
SWIDTH 524 0
DWIDTH 7 0
BBX 7 7 0 0
BITMAP
44
58
60
60
50
48
E6
ENDCHAR
STARTCHAR Lacute
ENCODING 313
SWIDTH 568 0
DWIDTH 8 0
BBX 7 14 1 0
BITMAP
10
20
40
00
E0
40
40
40
40
40
40
42
42
FC
ENDCHAR
STARTCHAR lacute
ENCODING 314
SWIDTH 279 0
DWIDTH 4 0
BBX 4 14 0 0
BITMAP
10
20
40
00
40
C0
40
40
40
40
40
40
40
E0
ENDCHAR
STARTCHAR Lcommaaccent
ENCODING 315
SWIDTH 568 0
DWIDTH 8 0
BBX 7 15 1 -5
BITMAP
E0
40
40
40
40
40
40
42
42
FC
00
10
10
10
20
ENDCHAR
STARTCHAR lcommaaccent
ENCODING 316
SWIDTH 279 0
DWIDTH 4 0
BBX 3 15 0 -5
BITMAP
40
C0
40
40
40
40
40
40
40
E0
00
40
40
40
80
ENDCHAR
STARTCHAR Lcaron
ENCODING 317
SWIDTH 818 0
DWIDTH 12 0
BBX 10 10 1 0
BITMAP
E0C0
4040
4040
4080
4000
4000
4000
4200
4200
FC00
ENDCHAR
STARTCHAR lcaron
ENCODING 318
SWIDTH 543 0
DWIDTH 8 0
BBX 7 10 0 0
BITMAP
46
C2
42
44
40
40
40
40
40
E0
ENDCHAR
STARTCHAR Ldot
ENCODING 319
SWIDTH 805 0
DWIDTH 12 0
BBX 9 10 1 0
BITMAP
E000
4000
4000
4000
4000
4000
4080
4200
4200
FC00
ENDCHAR
STARTCHAR ldot
ENCODING 320
SWIDTH 530 0
DWIDTH 8 0
BBX 6 10 0 0
BITMAP
40
C0
40
40
40
40
44
40
40
E0
ENDCHAR
STARTCHAR Lslash
ENCODING 321
SWIDTH 574 0
DWIDTH 8 0
BBX 8 10 0 0
BITMAP
70
20
20
28
30
60
A0
21
21
7E
ENDCHAR
STARTCHAR lslash
ENCODING 322
SWIDTH 294 0
DWIDTH 4 0
BBX 4 10 1 0
BITMAP
40
C0
40
50
60
C0
40
40
40
E0
ENDCHAR
STARTCHAR Nacute
ENCODING 323
SWIDTH 780 0
DWIDTH 11 0
BBX 9 14 1 0
BITMAP
0200
0400
0800
0000
C380
6100
5100
5100
4900
4900
4500
4300
4300
E100
ENDCHAR
STARTCHAR nacute
ENCODING 324
SWIDTH 619 0
DWIDTH 9 0
BBX 7 11 1 0
BITMAP
08
10
20
00
58
E4
44
44
44
44
EE
ENDCHAR
STARTCHAR Ncommaaccent
ENCODING 325
SWIDTH 780 0
DWIDTH 11 0
BBX 9 15 1 -5
BITMAP
C380
6100
5100
5100
4900
4900
4500
4300
4300
E100
0000
0800
0800
0800
1000
ENDCHAR
STARTCHAR ncommaaccent
ENCODING 326
SWIDTH 619 0
DWIDTH 9 0
BBX 7 12 1 -5
BITMAP
58
E4
44
44
44
44
EE
00
10
10
10
20
ENDCHAR
STARTCHAR Ncaron
ENCODING 327
SWIDTH 780 0
DWIDTH 11 0
BBX 9 14 1 0
BITMAP
1200
0C00
0800
0000
C380
6100
5100
5100
4900
4900
4500
4300
4300
E100
ENDCHAR
STARTCHAR ncaron
ENCODING 328
SWIDTH 619 0
DWIDTH 9 0
BBX 7 11 1 0
BITMAP
48
30
20
00
58
E4
44
44
44
44
EE
ENDCHAR
STARTCHAR napostrophe
ENCODING 329
SWIDTH 883 0
DWIDTH 13 0
BBX 11 10 1 0
BITMAP
C000
4000
4000
8580
0E40
0440
0440
0440
0440
0EE0
ENDCHAR
STARTCHAR Eng
ENCODING 330
SWIDTH 780 0
DWIDTH 11 0
BBX 9 13 1 -3
BITMAP
C380
6100
5100
5100
4900
4900
4500
4300
4300
E100
0100
0200
0400
ENDCHAR
STARTCHAR eng
ENCODING 331
SWIDTH 619 0
DWIDTH 9 0
BBX 6 10 1 -3
BITMAP
58
E4
44
44
44
44
E4
04
08
10
ENDCHAR
STARTCHAR Omacron
ENCODING 332
SWIDTH 762 0
DWIDTH 11 0
BBX 9 12 1 0
BITMAP
1E00
0000
3E00
4100
4100
8080
8080
8080
8080
4100
4100
3E00
ENDCHAR
STARTCHAR omacron
ENCODING 333
SWIDTH 577 0
DWIDTH 8 0
BBX 6 9 1 0
BITMAP
78
00
30
48
84
84
84
48
30
ENDCHAR
STARTCHAR Obreve
ENCODING 334
SWIDTH 762 0
DWIDTH 11 0
BBX 9 14 1 0
BITMAP
1200
1200
0C00
0000
3E00
4100
4100
8080
8080
8080
8080
4100
4100
3E00
ENDCHAR
STARTCHAR obreve
ENCODING 335
SWIDTH 577 0
DWIDTH 8 0
BBX 6 11 1 0
BITMAP
48
48
30
00
30
48
84
84
84
48
30
ENDCHAR
STARTCHAR Ohungarumlaut
ENCODING 336
SWIDTH 762 0
DWIDTH 11 0
BBX 9 14 1 0
BITMAP
1200
1400
1400
0000
3E00
4100
4100
8080
8080
8080
8080
4100
4100
3E00
ENDCHAR
STARTCHAR ohungarumlaut
ENCODING 337
SWIDTH 577 0
DWIDTH 8 0
BBX 6 11 1 0
BITMAP
48
50
50
00
30
48
84
84
84
48
30
ENDCHAR
STARTCHAR OE
ENCODING 338
SWIDTH 1025 0
DWIDTH 14 0
BBX 13 10 1 0
BITMAP
1FF8
2108
4108
8100
8110
81F0
8110
8100
6108
1FF8
ENDCHAR
STARTCHAR oe
ENCODING 339
SWIDTH 882 0
DWIDTH 12 0
BBX 11 7 1 0
BITMAP
31C0
4A20
8420
87C0
8400
CE20
31C0
ENDCHAR
STARTCHAR Racute
ENCODING 340
SWIDTH 644 0
DWIDTH 9 0
BBX 8 14 1 0
BITMAP
04
08
10
00
F8
44
42
42
44
78
44
42
42
E1
ENDCHAR
STARTCHAR racute
ENCODING 341
SWIDTH 389 0
DWIDTH 5 0
BBX 5 11 1 0
BITMAP
08
10
20
00
78
C0
40
40
40
40
E0
ENDCHAR
STARTCHAR Rcommaaccent
ENCODING 342
SWIDTH 644 0
DWIDTH 9 0
BBX 8 15 1 -5
BITMAP
F8
44
42
42
44
78
44
42
42
E1
00
10
10
10
20
ENDCHAR
STARTCHAR rcommaaccent
ENCODING 343
SWIDTH 389 0
DWIDTH 5 0
BBX 5 12 1 -5
BITMAP
78
C0
40
40
40
40
E0
00
20
20
20
40
ENDCHAR
STARTCHAR Rcaron
ENCODING 344
SWIDTH 644 0
DWIDTH 9 0
BBX 8 14 1 0
BITMAP
24
18
10
00
F8
44
42
42
44
78
44
42
42
E1
ENDCHAR
STARTCHAR rcaron
ENCODING 345
SWIDTH 389 0
DWIDTH 5 0
BBX 5 11 1 0
BITMAP
48
30
20
00
78
C0
40
40
40
40
E0
ENDCHAR
STARTCHAR Sacute
ENCODING 346
SWIDTH 541 0
DWIDTH 8 0
BBX 6 14 1 0
BITMAP
08
10
20
00
30
CC
84
80
60
38
84
84
8C
70
ENDCHAR
STARTCHAR sacute
ENCODING 347
SWIDTH 436 0
DWIDTH 6 0
BBX 4 11 1 0
BITMAP
10
20
40
00
60
90
80
60
10
90
60
ENDCHAR
STARTCHAR Scircumflex
ENCODING 348
SWIDTH 541 0
DWIDTH 8 0
BBX 6 13 1 0
BITMAP
30
48
00
30
CC
84
80
60
38
84
84
8C
70
ENDCHAR
STARTCHAR scircumflex
ENCODING 349
SWIDTH 436 0
DWIDTH 6 0
BBX 4 10 1 0
BITMAP
60
90
00
60
90
80
60
10
90
60
ENDCHAR
STARTCHAR Scedilla
ENCODING 350
SWIDTH 541 0
DWIDTH 8 0
BBX 6 13 1 -3
BITMAP
30
CC
84
80
60
38
84
84
8C
70
20
10
20
ENDCHAR
STARTCHAR scedilla
ENCODING 351
SWIDTH 436 0
DWIDTH 6 0
BBX 4 10 1 -3
BITMAP
60
90
80
60
10
90
60
40
20
40
ENDCHAR
STARTCHAR Scaron
ENCODING 352
SWIDTH 541 0
DWIDTH 8 0
BBX 6 12 1 0
BITMAP
78
00
30
CC
84
80
60
38
04
84
8C
70
ENDCHAR
STARTCHAR scaron
ENCODING 353
SWIDTH 436 0
DWIDTH 6 0
BBX 5 10 0 0
BITMAP
D8
20
00
30
48
40
30
08
48
30
ENDCHAR
STARTCHAR Tcommaaccent
ENCODING 354
SWIDTH 621 0
DWIDTH 9 0
BBX 9 13 0 -3
BITMAP
FF80
8880
8880
0800
0800
0800
0800
0800
0800
3E00
0800
0400
0800
ENDCHAR
STARTCHAR tcommaaccent
ENCODING 355
SWIDTH 344 0
DWIDTH 5 0
BBX 4 12 1 -3
BITMAP
40
40
F0
40
40
40
40
40
30
20
10
20
ENDCHAR
STARTCHAR Tcaron
ENCODING 356
SWIDTH 621 0
DWIDTH 9 0
BBX 9 14 0 0
BITMAP
1200
0C00
0800
0000
FF80
8880
8880
0800
0800
0800
0800
0800
0800
3E00
ENDCHAR
STARTCHAR tcaron
ENCODING 357
SWIDTH 605 0
DWIDTH 9 0
BBX 7 10 1 0
BITMAP
06
42
42
F4
40
40
40
40
40
30
ENDCHAR
STARTCHAR Tbar
ENCODING 358
SWIDTH 621 0
DWIDTH 9 0
BBX 9 10 0 0
BITMAP
FF80
8880
8880
0800
1C00
0800
0800
0800
0800
3E00
ENDCHAR
STARTCHAR tbar
ENCODING 359
SWIDTH 344 0
DWIDTH 5 0
BBX 4 9 1 0
BITMAP
40
40
F0
40
40
70
40
40
30
ENDCHAR
STARTCHAR Utilde
ENCODING 360
SWIDTH 791 0
DWIDTH 11 0
BBX 9 12 1 0
BITMAP
3E00
0000
E380
4100
4100
4100
4100
4100
4100
4100
2200
1C00
ENDCHAR
STARTCHAR utilde
ENCODING 361
SWIDTH 606 0
DWIDTH 8 0
BBX 8 9 0 0
BITMAP
7C
00
42
C6
42
42
42
46
3B
ENDCHAR
STARTCHAR Umacron
ENCODING 362
SWIDTH 791 0
DWIDTH 11 0
BBX 9 12 1 0
BITMAP
1E00
0000
E380
4100
4100
4100
4100
4100
4100
4100
2200
1C00
ENDCHAR
STARTCHAR umacron
ENCODING 363
SWIDTH 606 0
DWIDTH 8 0
BBX 8 9 0 0
BITMAP
3C
00
42
C6
42
42
42
46
3B
ENDCHAR
STARTCHAR Ubreve
ENCODING 364
SWIDTH 791 0
DWIDTH 11 0
BBX 9 14 1 0
BITMAP
1200
1200
0C00
0000
E380
4100
4100
4100
4100
4100
4100
4100
2200
1C00
ENDCHAR
STARTCHAR ubreve
ENCODING 365
SWIDTH 606 0
DWIDTH 8 0
BBX 8 11 0 0
BITMAP
24
24
18
00
42
C6
42
42
42
46
3B
ENDCHAR
STARTCHAR Uring
ENCODING 366
SWIDTH 791 0
DWIDTH 11 0
BBX 9 15 1 0
BITMAP
0800
1400
1400
0800
0000
E380
4100
4100
4100
4100
4100
4100
4100
2200
1C00
ENDCHAR
STARTCHAR uring
ENCODING 367
SWIDTH 606 0
DWIDTH 8 0
BBX 8 12 0 0
BITMAP
10
28
28
10
00
42
C6
42
42
42
46
3B
ENDCHAR
STARTCHAR Uhungarumlaut
ENCODING 368
SWIDTH 791 0
DWIDTH 11 0
BBX 9 14 1 0
BITMAP
1200
1400
1400
0000
E380
4100
4100
4100
4100
4100
4100
4100
2200
1C00
ENDCHAR
STARTCHAR uhungarumlaut
ENCODING 369
SWIDTH 606 0
DWIDTH 8 0
BBX 8 11 0 0
BITMAP
24
28
28
00
42
C6
42
42
42
46
3B
ENDCHAR
STARTCHAR Uogonek
ENCODING 370
SWIDTH 791 0
DWIDTH 11 0
BBX 9 13 1 -3
BITMAP
E380
4100
4100
4100
4100
4100
4100
4100
2200
1C00
1000
1000
0C00
ENDCHAR
STARTCHAR uogonek
ENCODING 371
SWIDTH 606 0
DWIDTH 8 0
BBX 8 10 0 -3
BITMAP
42
C6
42
42
42
46
3B
10
10
0C
ENDCHAR
STARTCHAR Wcircumflex
ENCODING 372
SWIDTH 940 0
DWIDTH 13 0
BBX 14 13 0 0
BITMAP
0300
0480
0000
E01C
4208
4208
4510
2510
2490
2490
28A0
1860
1040
ENDCHAR
STARTCHAR wcircumflex
ENCODING 373
SWIDTH 768 0
DWIDTH 11 0
BBX 11 10 0 0
BITMAP
0600
0900
0000
E0E0
4440
4A40
2A80
2A80
2980
1100
ENDCHAR
STARTCHAR Ycircumflex
ENCODING 374
SWIDTH 588 0
DWIDTH 8 0
BBX 9 13 0 0
BITMAP
0C00
1200
0000
F380
2100
2200
1200
1400
0800
0800
0800
0800
1E00
ENDCHAR
STARTCHAR ycircumflex
ENCODING 375
SWIDTH 506 0
DWIDTH 7 0
BBX 7 13 0 -3
BITMAP
18
24
00
EE
44
44
28
28
10
10
10
20
40
ENDCHAR
STARTCHAR Ydieresis
ENCODING 376
SWIDTH 588 0
DWIDTH 8 0
BBX 9 11 0 0
BITMAP
2400
C380
2100
2200
1200
1400
0C00
0800
0800
0800
1E00
ENDCHAR
STARTCHAR Zacute
ENCODING 377
SWIDTH 610 0
DWIDTH 8 0
BBX 9 14 0 0
BITMAP
0200
0400
0800
0000
7F80
4100
4200
0400
0400
0800
1000
2080
4080
FF80
ENDCHAR
STARTCHAR zacute
ENCODING 378
SWIDTH 480 0
DWIDTH 7 0
BBX 7 11 0 0
BITMAP
04
08
10
00
7E
44
08
08
10
22
FE
ENDCHAR
STARTCHAR Zdotaccent
ENCODING 379
SWIDTH 610 0
DWIDTH 8 0
BBX 9 12 0 0
BITMAP
0800
0000
7F80
4100
4200
0400
0400
0800
1000
2080
4080
FF80
ENDCHAR
STARTCHAR zdotaccent
ENCODING 380
SWIDTH 480 0
DWIDTH 7 0
BBX 7 9 0 0
BITMAP
10
00
7E
44
08
08
10
22
FE
ENDCHAR
STARTCHAR Zcaron
ENCODING 381
SWIDTH 610 0
DWIDTH 8 0
BBX 9 12 0 0
BITMAP
1E00
0000
7F80
4100
4200
0400
0400
0800
1000
2080
4080
FF80
ENDCHAR
STARTCHAR zcaron
ENCODING 382
SWIDTH 480 0
DWIDTH 7 0
BBX 7 10 0 0
BITMAP
24
18
00
7E
44
08
08
10
22
FE
ENDCHAR
STARTCHAR uni0186
ENCODING 390
SWIDTH 684 0
DWIDTH 9 0
BBX 8 10 1 0
BITMAP
38
C6
81
01
01
01
01
82
C2
3C
ENDCHAR
STARTCHAR uni0189
ENCODING 393
SWIDTH 785 0
DWIDTH 11 0
BBX 9 10 1 0
BITMAP
FE00
4100
4100
4080
4080
F080
4080
4080
4300
FC00
ENDCHAR
STARTCHAR uni018E
ENCODING 398
SWIDTH 606 0
DWIDTH 8 0
BBX 7 10 1 0
BITMAP
FE
84
04
44
7C
44
04
84
84
FE
ENDCHAR
STARTCHAR florin
ENCODING 402
SWIDTH 530 0
DWIDTH 7 0
BBX 7 12 0 -2
BITMAP
04
0A
10
10
7C
10
10
20
20
20
A0
40
ENDCHAR
STARTCHAR uni0197
ENCODING 407
SWIDTH 349 0
DWIDTH 5 0
BBX 3 10 1 0
BITMAP
E0
40
40
40
E0
40
40
40
40
E0
ENDCHAR
STARTCHAR uni019A
ENCODING 410
SWIDTH 279 0
DWIDTH 4 0
BBX 3 10 0 0
BITMAP
40
C0
40
40
E0
40
40
40
40
E0
ENDCHAR
STARTCHAR uni019D
ENCODING 413
SWIDTH 780 0
DWIDTH 11 0
BBX 10 13 0 -3
BITMAP
61C0
3080
2880
2880
2480
2480
2280
2180
2180
2080
2000
4000
8000
ENDCHAR
STARTCHAR uni019F
ENCODING 415
SWIDTH 762 0
DWIDTH 11 0
BBX 9 10 1 0
BITMAP
3E00
4100
4100
8080
FF80
8080
8080
4100
4100
3E00
ENDCHAR
STARTCHAR Ohorn
ENCODING 416
SWIDTH 762 0
DWIDTH 11 0
BBX 10 10 1 0
BITMAP
3EC0
4140
4140
8080
8080
8080
8080
4100
4100
3E00
ENDCHAR
STARTCHAR ohorn
ENCODING 417
SWIDTH 577 0
DWIDTH 8 0
BBX 8 7 1 0
BITMAP
33
49
85
86
84
48
30
ENDCHAR
STARTCHAR uni01A7
ENCODING 423
SWIDTH 541 0
DWIDTH 8 0
BBX 6 10 1 0
BITMAP
30
CC
84
04
18
70
84
84
C4
38
ENDCHAR
STARTCHAR uni01A8
ENCODING 424
SWIDTH 436 0
DWIDTH 6 0
BBX 4 7 1 0
BITMAP
60
90
10
60
80
90
60
ENDCHAR
STARTCHAR uni01AE
ENCODING 430
SWIDTH 621 0
DWIDTH 9 0
BBX 9 13 0 -3
BITMAP
FF80
8880
8880
0800
0800
0800
0800
0800
0800
0800
0800
0400
0200
ENDCHAR
STARTCHAR Uhorn
ENCODING 431
SWIDTH 791 0
DWIDTH 11 0
BBX 10 10 1 0
BITMAP
E3C0
4140
4140
4180
4100
4100
4100
4100
2200
1C00
ENDCHAR
STARTCHAR uhorn
ENCODING 432
SWIDTH 606 0
DWIDTH 8 0
BBX 10 7 0 0
BITMAP
42C0
C640
4240
4280
4200
4600
3B00
ENDCHAR
STARTCHAR uni01B5
ENCODING 437
SWIDTH 610 0
DWIDTH 8 0
BBX 9 10 0 0
BITMAP
7F80
4100
4200
0400
1C00
0800
1000
2080
4080
FF80
ENDCHAR
STARTCHAR uni01B6
ENCODING 438
SWIDTH 480 0
DWIDTH 7 0
BBX 7 7 0 0
BITMAP
7E
44
08
38
10
22
FE
ENDCHAR
STARTCHAR uni01BB
ENCODING 443
SWIDTH 530 0
DWIDTH 7 0
BBX 6 9 1 0
BITMAP
70
88
88
08
FC
20
40
84
F8
ENDCHAR
STARTCHAR uni01BC
ENCODING 444
SWIDTH 530 0
DWIDTH 7 0
BBX 6 9 0 0
BITMAP
7C
40
40
78
44
04
04
C4
38
ENDCHAR
STARTCHAR uni01C0
ENCODING 448
SWIDTH 228 0
DWIDTH 3 0
BBX 1 10 1 0
BITMAP
80
80
80
80
80
80
80
80
80
80
ENDCHAR
STARTCHAR uni01C2
ENCODING 450
SWIDTH 570 0
DWIDTH 8 0
BBX 7 10 0 -2
BITMAP
10
10
10
FE
10
10
FE
10
10
10
ENDCHAR
STARTCHAR uni01C3
ENCODING 451
SWIDTH 242 0
DWIDTH 3 0
BBX 1 10 1 0
BITMAP
80
80
80
80
80
80
80
00
80
80
ENDCHAR
STARTCHAR uni01CD
ENCODING 461
SWIDTH 635 0
DWIDTH 9 0
BBX 9 14 0 0
BITMAP
1200
0C00
0800
0000
0800
1800
1400
1400
2400
1C00
2200
4200
4100
E380
ENDCHAR
STARTCHAR uni01CE
ENCODING 462
SWIDTH 523 0
DWIDTH 7 0
BBX 6 11 1 0
BITMAP
48
30
20
00
70
88
08
78
88
98
64
ENDCHAR
STARTCHAR uni01CF
ENCODING 463
SWIDTH 349 0
DWIDTH 5 0
BBX 4 14 1 0
BITMAP
90
60
40
00
E0
40
40
40
40
40
40
40
40
E0
ENDCHAR
STARTCHAR uni01D0
ENCODING 464
SWIDTH 291 0
DWIDTH 4 0
BBX 4 11 1 0
BITMAP
90
60
40
00
40
C0
40
40
40
40
E0
ENDCHAR
STARTCHAR uni01D1
ENCODING 465
SWIDTH 762 0
DWIDTH 11 0
BBX 9 14 1 0
BITMAP
1200
0C00
0800
0000
3E00
4100
4100
8080
8080
8080
8080
4100
4100
3E00
ENDCHAR
STARTCHAR uni01D2
ENCODING 466
SWIDTH 577 0
DWIDTH 8 0
BBX 6 11 1 0
BITMAP
48
30
20
00
30
48
84
84
84
48
30
ENDCHAR
STARTCHAR uni01D3
ENCODING 467
SWIDTH 791 0
DWIDTH 11 0
BBX 9 14 1 0
BITMAP
1200
0C00
0800
0000
E380
4100
4100
4100
4100
4100
4100
4100
2200
1C00
ENDCHAR
STARTCHAR uni01D4
ENCODING 468
SWIDTH 606 0
DWIDTH 8 0
BBX 8 11 0 0
BITMAP
24
18
10
00
42
C6
42
42
42
46
3B
ENDCHAR
STARTCHAR uni01D5
ENCODING 469
SWIDTH 791 0
DWIDTH 11 0
BBX 9 13 1 0
BITMAP
1E00
0000
1400
E380
4100
4100
4100
4100
4100
4100
4100
2200
1C00
ENDCHAR
STARTCHAR uni01D6
ENCODING 470
SWIDTH 606 0
DWIDTH 8 0
BBX 8 11 0 0
BITMAP
3C
00
24
00
42
C6
42
42
42
46
3B
ENDCHAR
STARTCHAR uni01D7
ENCODING 471
SWIDTH 791 0
DWIDTH 11 0
BBX 9 15 1 0
BITMAP
0200
0400
0800
0000
1400
E380
4100
4100
4100
4100
4100
4100
4100
2200
1C00
ENDCHAR
STARTCHAR uni01D8
ENCODING 472
SWIDTH 606 0
DWIDTH 8 0
BBX 8 13 0 0
BITMAP
04
08
10
00
24
00
42
C6
42
42
42
46
3B
ENDCHAR
STARTCHAR uni01D9
ENCODING 473
SWIDTH 791 0
DWIDTH 11 0
BBX 9 15 1 0
BITMAP
1200
0C00
0800
0000
1400
E380
4100
4100
4100
4100
4100
4100
4100
2200
1C00
ENDCHAR
STARTCHAR uni01DA
ENCODING 474
SWIDTH 606 0
DWIDTH 8 0
BBX 8 13 0 0
BITMAP
24
18
10
00
24
00
42
C6
42
42
42
46
3B
ENDCHAR
STARTCHAR uni01DB
ENCODING 475
SWIDTH 791 0
DWIDTH 11 0
BBX 9 15 1 0
BITMAP
2000
1000
0800
0000
1400
E380
4100
4100
4100
4100
4100
4100
4100
2200
1C00
ENDCHAR
STARTCHAR uni01DC
ENCODING 476
SWIDTH 606 0
DWIDTH 8 0
BBX 8 13 0 0
BITMAP
20
10
08
00
24
00
42
C6
42
42
42
46
3B
ENDCHAR
STARTCHAR uni01DD
ENCODING 477
SWIDTH 514 0
DWIDTH 7 0
BBX 5 7 1 0
BITMAP
70
88
08
78
88
90
60
ENDCHAR
STARTCHAR uni01DE
ENCODING 478
SWIDTH 635 0
DWIDTH 9 0
BBX 9 13 0 0
BITMAP
3C00
0000
2400
1000
2800
2800
2400
2400
3C00
4200
4100
4100
C780
ENDCHAR
STARTCHAR uni01DF
ENCODING 479
SWIDTH 523 0
DWIDTH 7 0
BBX 6 11 1 0
BITMAP
78
00
48
00
70
88
08
78
88
98
64
ENDCHAR
STARTCHAR uni01E0
ENCODING 480
SWIDTH 635 0
DWIDTH 9 0
BBX 9 14 0 0
BITMAP
3C00
0000
0800
0000
0800
1800
1400
1400
2400
1C00
2200
4200
4100
E380
ENDCHAR
STARTCHAR uni01E1
ENCODING 481
SWIDTH 523 0
DWIDTH 7 0
BBX 6 11 1 0
BITMAP
78
00
20
00
70
88
08
78
88
98
64
ENDCHAR
STARTCHAR uni01E2
ENCODING 482
SWIDTH 876 0
DWIDTH 12 0
BBX 13 12 -1 0
BITMAP
03C0
0000
0FF8
0508
0508
0900
0910
1FF0
1110
2100
4108
E3F8
ENDCHAR
STARTCHAR uni01E3
ENCODING 483
SWIDTH 797 0
DWIDTH 11 0
BBX 9 9 1 0
BITMAP
1E00
0000
7300
8C80
8880
3F00
C800
9880
6700
ENDCHAR
STARTCHAR uni01E4
ENCODING 484
SWIDTH 734 0
DWIDTH 10 0
BBX 9 10 1 0
BITMAP
1C00
6300
4100
8000
8000
8780
8100
4380
6100
1E00
ENDCHAR
STARTCHAR uni01E5
ENCODING 485
SWIDTH 520 0
DWIDTH 7 0
BBX 6 10 1 -3
BITMAP
74
88
88
88
70
80
78
FC
8C
70
ENDCHAR
STARTCHAR Gcaron
ENCODING 486
SWIDTH 734 0
DWIDTH 10 0
BBX 9 14 1 0
BITMAP
1200
0C00
0800
0000
1C00
6300
4100
8000
8000
8780
8100
4100
6100
1E00
ENDCHAR
STARTCHAR gcaron
ENCODING 487
SWIDTH 520 0
DWIDTH 7 0
BBX 6 14 1 -3
BITMAP
48
30
20
00
74
88
88
88
70
80
78
84
8C
70
ENDCHAR
STARTCHAR uni01E8
ENCODING 488
SWIDTH 658 0
DWIDTH 9 0
BBX 9 14 1 0
BITMAP
1200
0C00
0800
0000
E780
4200
4400
5800
6000
5000
4800
4400
4200
E180
ENDCHAR
STARTCHAR uni01E9
ENCODING 489
SWIDTH 524 0
DWIDTH 7 0
BBX 7 14 0 0
BITMAP
90
60
40
00
40
C0
40
44
58
60
60
50
48
E6
ENDCHAR
STARTCHAR uni01EA
ENCODING 490
SWIDTH 762 0
DWIDTH 11 0
BBX 9 13 1 -3
BITMAP
3E00
4100
4100
8080
8080
8080
8080
4100
4100
3E00
1000
1000
0C00
ENDCHAR
STARTCHAR uni01EB
ENCODING 491
SWIDTH 577 0
DWIDTH 8 0
BBX 6 10 1 -3
BITMAP
30
48
84
84
84
48
30
20
20
18
ENDCHAR
STARTCHAR uni01EC
ENCODING 492
SWIDTH 762 0
DWIDTH 11 0
BBX 9 15 1 -3
BITMAP
1E00
0000
3E00
4100
4100
8080
8080
8080
8080
4100
4100
3E00
1000
1000
0C00
ENDCHAR
STARTCHAR uni01ED
ENCODING 493
SWIDTH 577 0
DWIDTH 8 0
BBX 6 12 1 -3
BITMAP
78
00
30
48
84
84
84
48
30
20
20
18
ENDCHAR
STARTCHAR uni01F0
ENCODING 496
SWIDTH 280 0
DWIDTH 4 0
BBX 4 14 0 -3
BITMAP
90
60
40
00
20
60
20
20
20
20
20
20
40
80
ENDCHAR
STARTCHAR uni01F4
ENCODING 500
SWIDTH 734 0
DWIDTH 10 0
BBX 9 14 1 0
BITMAP
0200
0400
0800
0000
1C00
6300
4100
8000
8000
8780
8100
4100
6100
1E00
ENDCHAR
STARTCHAR uni01F5
ENCODING 501
SWIDTH 520 0
DWIDTH 7 0
BBX 6 14 1 -3
BITMAP
08
10
20
00
74
88
88
88
70
80
78
84
8C
70
ENDCHAR
STARTCHAR uni01F8
ENCODING 504
SWIDTH 780 0
DWIDTH 11 0
BBX 9 14 1 0
BITMAP
2000
1000
0800
0000
C380
6100
5100
5100
4900
4900
4500
4300
4300
E100
ENDCHAR
STARTCHAR uni01F9
ENCODING 505
SWIDTH 619 0
DWIDTH 9 0
BBX 7 11 1 0
BITMAP
40
20
10
00
58
E4
44
44
44
44
EE
ENDCHAR
STARTCHAR Aringacute
ENCODING 506
SWIDTH 627 0
DWIDTH 9 0
BBX 9 16 0 0
BITMAP
0200
0400
0800
0000
0800
1400
0800
0800
1400
1400
2400
1C00
2200
4100
4100
E380
ENDCHAR
STARTCHAR aringacute
ENCODING 507
SWIDTH 523 0
DWIDTH 7 0
BBX 6 15 1 0
BITMAP
08
10
20
00
20
50
50
20
70
88
08
78
88
98
64
ENDCHAR
STARTCHAR AEacute
ENCODING 508
SWIDTH 876 0
DWIDTH 12 0
BBX 13 14 -1 0
BITMAP
0040
0080
0100
0000
0FF8
0508
0508
0900
0910
1FF0
1110
2100
4108
E3F8
ENDCHAR
STARTCHAR aeacute
ENCODING 509
SWIDTH 797 0
DWIDTH 11 0
BBX 9 11 1 0
BITMAP
0200
0400
0800
0000
7300
8C80
8880
3F00
C800
9880
6700
ENDCHAR
STARTCHAR Oslashacute
ENCODING 510
SWIDTH 762 0
DWIDTH 11 0
BBX 9 14 1 0
BITMAP
0200
0400
0800
0000
3D00
4300
4300
8480
8880
8880
9080
6100
6100
5E00
ENDCHAR
STARTCHAR oslashacute
ENCODING 511
SWIDTH 577 0
DWIDTH 8 0
BBX 6 11 1 0
BITMAP
04
08
10
00
34
48
94
A4
A4
48
B0
ENDCHAR
STARTCHAR uni0200
ENCODING 512
SWIDTH 635 0
DWIDTH 9 0
BBX 9 14 0 0
BITMAP
2400
1400
1400
0000
0800
1800
1400
1400
2400
1C00
2200
4200
4100
E380
ENDCHAR
STARTCHAR uni0201
ENCODING 513
SWIDTH 523 0
DWIDTH 7 0
BBX 6 11 1 0
BITMAP
90
50
50
00
70
88
08
78
88
98
64
ENDCHAR
STARTCHAR uni0202
ENCODING 514
SWIDTH 635 0
DWIDTH 9 0
BBX 9 14 0 0
BITMAP
1800
2400
2400
0000
0800
1800
1400
1400
2400
1C00
2200
4200
4100
E380
ENDCHAR
STARTCHAR uni0203
ENCODING 515
SWIDTH 523 0
DWIDTH 7 0
BBX 6 11 1 0
BITMAP
30
48
48
00
70
88
08
78
88
98
64
ENDCHAR
STARTCHAR uni0204
ENCODING 516
SWIDTH 606 0
DWIDTH 8 0
BBX 7 14 1 0
BITMAP
48
28
28
00
FE
42
42
40
44
7C
44
40
42
FE
ENDCHAR
STARTCHAR uni0205
ENCODING 517
SWIDTH 514 0
DWIDTH 7 0
BBX 5 11 1 0
BITMAP
48
28
28
00
30
48
88
F0
80
88
70
ENDCHAR
STARTCHAR uni0206
ENCODING 518
SWIDTH 606 0
DWIDTH 8 0
BBX 7 14 1 0
BITMAP
18
24
24
00
FE
42
42
40
44
7C
44
40
42
FE
ENDCHAR
STARTCHAR uni0207
ENCODING 519
SWIDTH 514 0
DWIDTH 7 0
BBX 5 11 1 0
BITMAP
30
48
48
00
30
48
88
F0
80
88
70
ENDCHAR
STARTCHAR uni0208
ENCODING 520
SWIDTH 349 0
DWIDTH 5 0
BBX 4 14 0 0
BITMAP
90
50
50
00
70
20
20
20
20
20
20
20
20
70
ENDCHAR
STARTCHAR uni0209
ENCODING 521
SWIDTH 291 0
DWIDTH 4 0
BBX 4 11 0 0
BITMAP
90
50
50
00
20
60
20
20
20
20
70
ENDCHAR
STARTCHAR uni020A
ENCODING 522
SWIDTH 349 0
DWIDTH 5 0
BBX 4 14 1 0
BITMAP
60
90
90
00
E0
40
40
40
40
40
40
40
40
E0
ENDCHAR
STARTCHAR uni020B
ENCODING 523
SWIDTH 291 0
DWIDTH 4 0
BBX 4 11 0 0
BITMAP
60
90
90
00
20
60
20
20
20
20
70
ENDCHAR
STARTCHAR uni020C
ENCODING 524
SWIDTH 762 0
DWIDTH 11 0
BBX 9 14 1 0
BITMAP
2400
1400
1400
0000
3E00
4100
4100
8080
8080
8080
8080
4100
4100
3E00
ENDCHAR
STARTCHAR uni020D
ENCODING 525
SWIDTH 577 0
DWIDTH 8 0
BBX 6 11 1 0
BITMAP
48
28
28
00
30
48
84
84
84
48
30
ENDCHAR
STARTCHAR uni020E
ENCODING 526
SWIDTH 762 0
DWIDTH 11 0
BBX 9 14 1 0
BITMAP
0C00
1200
1200
0000
3E00
4100
4100
8080
8080
8080
8080
4100
4100
3E00
ENDCHAR
STARTCHAR uni020F
ENCODING 527
SWIDTH 577 0
DWIDTH 8 0
BBX 6 11 1 0
BITMAP
30
48
48
00
30
48
84
84
84
48
30
ENDCHAR
STARTCHAR uni0210
ENCODING 528
SWIDTH 644 0
DWIDTH 9 0
BBX 8 14 1 0
BITMAP
48
28
28
00
F8
44
42
42
44
78
44
42
42
E1
ENDCHAR
STARTCHAR uni0211
ENCODING 529
SWIDTH 389 0
DWIDTH 5 0
BBX 5 11 1 0
BITMAP
90
50
50
00
78
C0
40
40
40
40
E0
ENDCHAR
STARTCHAR uni0212
ENCODING 530
SWIDTH 644 0
DWIDTH 9 0
BBX 8 14 1 0
BITMAP
30
48
48
00
F8
44
42
42
44
78
44
42
42
E1
ENDCHAR
STARTCHAR uni0213
ENCODING 531
SWIDTH 389 0
DWIDTH 5 0
BBX 5 11 1 0
BITMAP
60
90
90
00
78
C0
40
40
40
40
E0
ENDCHAR
STARTCHAR uni0214
ENCODING 532
SWIDTH 791 0
DWIDTH 11 0
BBX 9 14 1 0
BITMAP
2400
1400
1400
0000
E380
4100
4100
4100
4100
4100
4100
4100
2200
1C00
ENDCHAR
STARTCHAR uni0215
ENCODING 533
SWIDTH 606 0
DWIDTH 8 0
BBX 8 11 0 0
BITMAP
48
28
28
00
42
C6
42
42
42
46
3B
ENDCHAR
STARTCHAR uni0216
ENCODING 534
SWIDTH 791 0
DWIDTH 11 0
BBX 9 14 1 0
BITMAP
0C00
1200
1200
0000
E380
4100
4100
4100
4100
4100
4100
4100
2200
1C00
ENDCHAR
STARTCHAR uni0217
ENCODING 535
SWIDTH 606 0
DWIDTH 8 0
BBX 8 11 0 0
BITMAP
18
24
24
00
42
C6
42
42
42
46
3B
ENDCHAR
STARTCHAR Scommaaccent
ENCODING 536
SWIDTH 541 0
DWIDTH 8 0
BBX 6 15 1 -5
BITMAP
30
CC
84
80
60
38
84
84
8C
70
00
10
10
10
20
ENDCHAR
STARTCHAR scommaaccent
ENCODING 537
SWIDTH 436 0
DWIDTH 6 0
BBX 4 12 1 -5
BITMAP
60
90
80
60
10
90
60
00
20
20
20
40
ENDCHAR
STARTCHAR Tcommaaccent
ENCODING 538
SWIDTH 621 0
DWIDTH 9 0
BBX 9 15 0 -5
BITMAP
FF80
8880
8880
0800
0800
0800
0800
0800
0800
3E00
0000
0800
0800
0800
1000
ENDCHAR
STARTCHAR tcommaaccent
ENCODING 539
SWIDTH 344 0
DWIDTH 5 0
BBX 4 14 1 -5
BITMAP
40
40
F0
40
40
40
40
40
30
00
20
20
20
40
ENDCHAR
STARTCHAR uni021E
ENCODING 542
SWIDTH 798 0
DWIDTH 11 0
BBX 9 14 1 0
BITMAP
1200
0C00
0800
0000
E380
4100
4100
4100
4100
7F00
4100
4100
4100
E380
ENDCHAR
STARTCHAR uni021F
ENCODING 543
SWIDTH 607 0
DWIDTH 8 0
BBX 8 14 0 0
BITMAP
48
30
20
00
40
C0
40
5C
62
42
42
42
42
E7
ENDCHAR
STARTCHAR uni0226
ENCODING 550
SWIDTH 635 0
DWIDTH 9 0
BBX 9 12 0 0
BITMAP
0800
0000
0800
1800
1400
1400
2400
1C00
2200
4200
4100
E380
ENDCHAR
STARTCHAR uni0227
ENCODING 551
SWIDTH 523 0
DWIDTH 7 0
BBX 6 9 1 0
BITMAP
20
00
70
88
08
78
88
98
64
ENDCHAR
STARTCHAR uni0228
ENCODING 552
SWIDTH 606 0
DWIDTH 8 0
BBX 7 13 1 -3
BITMAP
FE
42
42
40
44
7C
44
40
42
FE
10
08
10
ENDCHAR
STARTCHAR uni0229
ENCODING 553
SWIDTH 514 0
DWIDTH 7 0
BBX 5 10 1 -3
BITMAP
30
48
88
F0
80
88
70
20
10
20
ENDCHAR
STARTCHAR uni022A
ENCODING 554
SWIDTH 762 0
DWIDTH 11 0
BBX 9 13 1 0
BITMAP
3C00
0000
2400
3E00
4100
4100
8080
8080
8080
8080
4100
4100
3E00
ENDCHAR
STARTCHAR uni022B
ENCODING 555
SWIDTH 577 0
DWIDTH 8 0
BBX 6 11 1 0
BITMAP
78
00
48
00
30
48
84
84
84
48
30
ENDCHAR
STARTCHAR uni022C
ENCODING 556
SWIDTH 762 0
DWIDTH 11 0
BBX 9 14 1 0
BITMAP
1E00
0000
3A00
0600
3E00
4100
4100
8080
8080
8080
8080
4100
4100
3E00
ENDCHAR
STARTCHAR uni022D
ENCODING 557
SWIDTH 577 0
DWIDTH 8 0
BBX 6 12 1 0
BITMAP
78
00
04
78
80
30
48
84
84
84
48
30
ENDCHAR
STARTCHAR uni022E
ENCODING 558
SWIDTH 762 0
DWIDTH 11 0
BBX 9 12 1 0
BITMAP
0800
0000
3E00
4100
4100
8080
8080
8080
8080
4100
4100
3E00
ENDCHAR
STARTCHAR uni022F
ENCODING 559
SWIDTH 577 0
DWIDTH 8 0
BBX 6 9 1 0
BITMAP
10
00
30
48
84
84
84
48
30
ENDCHAR
STARTCHAR uni0230
ENCODING 560
SWIDTH 762 0
DWIDTH 11 0
BBX 9 14 1 0
BITMAP
1E00
0000
0800
0000
3E00
4100
4100
8080
8080
8080
8080
4100
4100
3E00
ENDCHAR
STARTCHAR uni0231
ENCODING 561
SWIDTH 577 0
DWIDTH 8 0
BBX 6 11 1 0
BITMAP
78
00
10
00
30
48
84
84
84
48
30
ENDCHAR
STARTCHAR uni0232
ENCODING 562
SWIDTH 588 0
DWIDTH 8 0
BBX 9 12 0 0
BITMAP
1E00
0000
F380
2100
2200
1200
1400
0800
0800
0800
0800
1E00
ENDCHAR
STARTCHAR uni0233
ENCODING 563
SWIDTH 506 0
DWIDTH 7 0
BBX 7 12 0 -3
BITMAP
3C
00
EE
44
44
28
28
10
10
10
20
40
ENDCHAR
STARTCHAR uni0250
ENCODING 592
SWIDTH 523 0
DWIDTH 7 0
BBX 6 7 1 0
BITMAP
98
64
44
78
40
44
38
ENDCHAR
STARTCHAR uni0254
ENCODING 596
SWIDTH 496 0
DWIDTH 7 0
BBX 5 7 1 0
BITMAP
60
90
08
08
08
90
60
ENDCHAR
STARTCHAR uni0258
ENCODING 600
SWIDTH 514 0
DWIDTH 7 0
BBX 5 7 1 0
BITMAP
60
90
88
78
08
88
70
ENDCHAR
STARTCHAR uni0259
ENCODING 601
SWIDTH 514 0
DWIDTH 7 0
BBX 5 7 1 0
BITMAP
70
88
08
78
88
90
60
ENDCHAR
STARTCHAR uni025F
ENCODING 607
SWIDTH 319 0
DWIDTH 4 0
BBX 5 10 1 -3
BITMAP
38
10
10
10
10
10
78
10
D0
20
ENDCHAR
STARTCHAR uni0265
ENCODING 613
SWIDTH 607 0
DWIDTH 8 0
BBX 8 10 0 -3
BITMAP
E7
42
42
42
42
46
3A
02
03
02
ENDCHAR
STARTCHAR uni0275
ENCODING 629
SWIDTH 577 0
DWIDTH 8 0
BBX 6 7 1 0
BITMAP
30
48
84
FC
84
48
30
ENDCHAR
STARTCHAR uni0279
ENCODING 633
SWIDTH 389 0
DWIDTH 5 0
BBX 5 7 1 0
BITMAP
38
10
10
10
10
18
F0
ENDCHAR
STARTCHAR uni0287
ENCODING 647
SWIDTH 344 0
DWIDTH 5 0
BBX 4 9 1 0
BITMAP
C0
20
20
20
20
20
F0
20
20
ENDCHAR
STARTCHAR uni0288
ENCODING 648
SWIDTH 344 0
DWIDTH 5 0
BBX 4 12 1 -3
BITMAP
40
40
F0
40
40
40
40
40
40
40
20
10
ENDCHAR
STARTCHAR uni0289
ENCODING 649
SWIDTH 606 0
DWIDTH 8 0
BBX 8 7 0 0
BITMAP
42
C6
42
FF
42
46
3B
ENDCHAR
STARTCHAR uni028C
ENCODING 652
SWIDTH 504 0
DWIDTH 7 0
BBX 7 7 0 0
BITMAP
10
28
28
28
44
44
EE
ENDCHAR
STARTCHAR uni028D
ENCODING 653
SWIDTH 768 0
DWIDTH 11 0
BBX 11 7 0 0
BITMAP
1100
3280
2A80
2A80
4A40
4440
E0E0
ENDCHAR
STARTCHAR uni028E
ENCODING 654
SWIDTH 506 0
DWIDTH 7 0
BBX 7 10 0 0
BITMAP
04
08
10
10
10
28
28
44
44
EE
ENDCHAR
STARTCHAR uni029E
ENCODING 670
SWIDTH 524 0
DWIDTH 7 0
BBX 7 10 0 -3
BITMAP
CE
24
14
0C
0C
34
44
04
06
04
ENDCHAR
STARTCHAR uni02BB
ENCODING 699
SWIDTH 278 0
DWIDTH 4 0
BBX 2 4 1 7
BITMAP
40
80
80
C0
ENDCHAR
STARTCHAR afii57929
ENCODING 700
SWIDTH 278 0
DWIDTH 4 0
BBX 2 4 1 6
BITMAP
C0
40
40
80
ENDCHAR
STARTCHAR afii64937
ENCODING 701
SWIDTH 278 0
DWIDTH 4 0
BBX 2 4 1 6
BITMAP
C0
80
80
40
ENDCHAR
STARTCHAR circumflex
ENCODING 710
SWIDTH 400 0
DWIDTH 6 0
BBX 4 2 1 8
BITMAP
60
90
ENDCHAR
STARTCHAR caron
ENCODING 711
SWIDTH 400 0
DWIDTH 6 0
BBX 4 3 1 7
BITMAP
90
60
40
ENDCHAR
STARTCHAR uni02C8
ENCODING 712
SWIDTH 278 0
DWIDTH 4 0
BBX 1 4 1 6
BITMAP
80
80
80
80
ENDCHAR
STARTCHAR macron
ENCODING 713
SWIDTH 400 0
DWIDTH 6 0
BBX 4 1 1 8
BITMAP
F0
ENDCHAR
STARTCHAR uni02CA
ENCODING 714
SWIDTH 400 0
DWIDTH 6 0
BBX 3 3 2 7
BITMAP
20
40
80
ENDCHAR
STARTCHAR uni02CB
ENCODING 715
SWIDTH 400 0
DWIDTH 6 0
BBX 3 3 1 7
BITMAP
80
40
20
ENDCHAR
STARTCHAR uni02CD
ENCODING 717
SWIDTH 400 0
DWIDTH 6 0
BBX 4 1 1 -2
BITMAP
F0
ENDCHAR
STARTCHAR uni02CE
ENCODING 718
SWIDTH 400 0
DWIDTH 6 0
BBX 3 3 1 -4
BITMAP
80
40
20
ENDCHAR
STARTCHAR uni02CF
ENCODING 719
SWIDTH 400 0
DWIDTH 6 0
BBX 3 3 2 -4
BITMAP
20
40
80
ENDCHAR
STARTCHAR breve
ENCODING 728
SWIDTH 400 0
DWIDTH 6 0
BBX 4 3 1 7
BITMAP
90
90
60
ENDCHAR
STARTCHAR dotaccent
ENCODING 729
SWIDTH 400 0
DWIDTH 6 0
BBX 1 1 2 8
BITMAP
80
ENDCHAR
STARTCHAR ring
ENCODING 730
SWIDTH 400 0
DWIDTH 6 0
BBX 3 4 1 7
BITMAP
40
A0
A0
40
ENDCHAR
STARTCHAR ogonek
ENCODING 731
SWIDTH 400 0
DWIDTH 6 0
BBX 3 4 1 -3
BITMAP
40
80
80
60
ENDCHAR
STARTCHAR tilde
ENCODING 732
SWIDTH 400 0
DWIDTH 6 0
BBX 5 1 0 8
BITMAP
F8
ENDCHAR
STARTCHAR hungarumlaut
ENCODING 733
SWIDTH 400 0
DWIDTH 6 0
BBX 4 3 1 7
BITMAP
90
A0
A0
ENDCHAR
STARTCHAR uni02EE
ENCODING 750
SWIDTH 458 0
DWIDTH 6 0
BBX 4 4 1 6
BITMAP
90
50
90
A0
ENDCHAR
STARTCHAR uni037E
ENCODING 894
SWIDTH 265 0
DWIDTH 4 0
BBX 2 8 1 -1
BITMAP
40
C0
00
00
40
40
40
80
ENDCHAR
STARTCHAR tonos
ENCODING 900
SWIDTH 400 0
DWIDTH 6 0
BBX 3 3 2 7
BITMAP
20
40
80
ENDCHAR
STARTCHAR dieresistonos
ENCODING 901
SWIDTH 400 0
DWIDTH 6 0
BBX 5 5 0 8
BITMAP
08
10
20
00
D8
ENDCHAR
STARTCHAR anoteleia
ENCODING 903
SWIDTH 265 0
DWIDTH 4 0
BBX 1 1 1 3
BITMAP
80
ENDCHAR
STARTCHAR mu
ENCODING 956
SWIDTH 606 0
DWIDTH 8 0
BBX 8 10 0 -3
BITMAP
42
C6
42
42
42
46
7B
40
40
40
ENDCHAR
STARTCHAR uni1E00
ENCODING 7680
SWIDTH 635 0
DWIDTH 9 0
BBX 9 15 0 -5
BITMAP
0800
1800
1400
1400
2400
1C00
2200
4200
4100
E380
0000
0800
1400
1400
0800
ENDCHAR
STARTCHAR uni1E01
ENCODING 7681
SWIDTH 523 0
DWIDTH 7 0
BBX 6 12 1 -5
BITMAP
70
88
08
78
88
98
64
00
10
28
28
10
ENDCHAR
STARTCHAR uni1E02
ENCODING 7682
SWIDTH 646 0
DWIDTH 9 0
BBX 7 12 1 0
BITMAP
10
00
FC
42
42
46
78
44
42
42
46
F8
ENDCHAR
STARTCHAR uni1E03
ENCODING 7683
SWIDTH 598 0
DWIDTH 8 0
BBX 7 12 0 0
BITMAP
20
00
40
C0
40
5C
62
42
42
42
44
78
ENDCHAR
STARTCHAR uni1E04
ENCODING 7684
SWIDTH 646 0
DWIDTH 9 0
BBX 7 12 1 -2
BITMAP
FC
42
42
46
78
44
42
42
46
F8
00
10
ENDCHAR
STARTCHAR uni1E05
ENCODING 7685
SWIDTH 598 0
DWIDTH 8 0
BBX 7 12 0 -2
BITMAP
40
C0
40
5C
62
42
42
42
44
78
00
10
ENDCHAR
STARTCHAR uni1E06
ENCODING 7686
SWIDTH 646 0
DWIDTH 9 0
BBX 7 12 1 -2
BITMAP
FC
42
42
46
78
44
42
42
46
F8
00
78
ENDCHAR
STARTCHAR uni1E07
ENCODING 7687
SWIDTH 598 0
DWIDTH 8 0
BBX 7 12 0 -2
BITMAP
40
C0
40
5C
62
42
42
42
44
78
00
78
ENDCHAR
STARTCHAR uni1E08
ENCODING 7688
SWIDTH 680 0
DWIDTH 9 0
BBX 8 17 1 -3
BITMAP
04
08
10
00
1E
21
41
80
80
80
80
41
61
1E
08
08
0C
ENDCHAR
STARTCHAR uni1E09
ENCODING 7689
SWIDTH 496 0
DWIDTH 7 0
BBX 5 14 1 -3
BITMAP
08
10
20
00
30
48
80
80
80
48
30
20
20
30
ENDCHAR
STARTCHAR uni1E0A
ENCODING 7690
SWIDTH 779 0
DWIDTH 11 0
BBX 9 12 1 0
BITMAP
0800
0000
FE00
4100
4100
4080
4080
4080
4080
4100
4300
FC00
ENDCHAR
STARTCHAR uni1E0B
ENCODING 7691
SWIDTH 598 0
DWIDTH 8 0
BBX 7 12 1 0
BITMAP
08
00
04
0C
04
3C
44
84
84
84
4C
36
ENDCHAR
STARTCHAR uni1E0C
ENCODING 7692
SWIDTH 779 0
DWIDTH 11 0
BBX 9 12 1 -2
BITMAP
FE00
4100
4100
4080
4080
4080
4080
4100
4300
FC00
0000
0800
ENDCHAR
STARTCHAR uni1E0D
ENCODING 7693
SWIDTH 598 0
DWIDTH 8 0
BBX 7 12 1 -2
BITMAP
04
0C
04
3C
44
84
84
84
4C
36
00
10
ENDCHAR
STARTCHAR uni1E0E
ENCODING 7694
SWIDTH 779 0
DWIDTH 11 0
BBX 9 12 1 -2
BITMAP
FE00
4100
4100
4080
4080
4080
4080
4100
4300
FC00
0000
3C00
ENDCHAR
STARTCHAR uni1E0F
ENCODING 7695
SWIDTH 598 0
DWIDTH 8 0
BBX 7 12 1 -2
BITMAP
04
0C
04
3C
44
84
84
84
4C
36
00
3C
ENDCHAR
STARTCHAR uni1E10
ENCODING 7696
SWIDTH 779 0
DWIDTH 11 0
BBX 9 13 1 -3
BITMAP
FE00
4100
4100
4080
4080
4080
4080
4100
4300
FC00
1000
0800
1000
ENDCHAR
STARTCHAR uni1E11
ENCODING 7697
SWIDTH 598 0
DWIDTH 8 0
BBX 7 13 1 -3
BITMAP
04
0C
04
3C
44
84
84
84
4C
36
10
08
10
ENDCHAR
STARTCHAR uni1E12
ENCODING 7698
SWIDTH 779 0
DWIDTH 11 0
BBX 9 13 1 -3
BITMAP
FE00
4100
4100
4080
4080
4080
4080
4100
4300
FC00
0000
1800
2400
ENDCHAR
STARTCHAR uni1E13
ENCODING 7699
SWIDTH 598 0
DWIDTH 8 0
BBX 7 13 1 -3
BITMAP
04
0C
04
3C
44
84
84
84
4C
36
00
18
24
ENDCHAR
STARTCHAR uni1E14
ENCODING 7700
SWIDTH 606 0
DWIDTH 8 0
BBX 7 16 1 0
BITMAP
40
20
10
00
3C
00
FE
42
42
40
44
7C
44
40
42
FE
ENDCHAR
STARTCHAR uni1E15
ENCODING 7701
SWIDTH 514 0
DWIDTH 7 0
BBX 5 13 1 0
BITMAP
40
20
10
00
78
00
30
48
88
F0
80
88
70
ENDCHAR
STARTCHAR uni1E16
ENCODING 7702
SWIDTH 606 0
DWIDTH 8 0
BBX 7 16 1 0
BITMAP
04
08
10
00
3C
00
FE
42
42
40
44
7C
44
40
42
FE
ENDCHAR
STARTCHAR uni1E17
ENCODING 7703
SWIDTH 514 0
DWIDTH 7 0
BBX 5 13 1 0
BITMAP
08
10
20
00
78
00
30
48
88
F0
80
88
70
ENDCHAR
STARTCHAR uni1E18
ENCODING 7704
SWIDTH 606 0
DWIDTH 8 0
BBX 7 13 1 -3
BITMAP
FE
42
42
40
44
7C
44
40
42
FE
00
30
48
ENDCHAR
STARTCHAR uni1E19
ENCODING 7705
SWIDTH 514 0
DWIDTH 7 0
BBX 5 10 1 -3
BITMAP
30
48
88
F0
80
88
70
00
30
48
ENDCHAR
STARTCHAR uni1E1A
ENCODING 7706
SWIDTH 606 0
DWIDTH 8 0
BBX 7 12 1 -2
BITMAP
FE
42
42
40
44
7C
44
40
42
FE
00
7C
ENDCHAR
STARTCHAR uni1E1B
ENCODING 7707
SWIDTH 514 0
DWIDTH 7 0
BBX 5 9 1 -2
BITMAP
30
48
88
F0
80
88
70
00
F8
ENDCHAR
STARTCHAR uni1E1C
ENCODING 7708
SWIDTH 606 0
DWIDTH 8 0
BBX 7 17 1 -3
BITMAP
24
24
18
00
FE
42
42
40
44
7C
44
40
42
FE
10
08
10
ENDCHAR
STARTCHAR uni1E1D
ENCODING 7709
SWIDTH 514 0
DWIDTH 7 0
BBX 5 14 1 -3
BITMAP
48
48
30
00
30
48
88
F0
80
88
70
20
10
20
ENDCHAR
STARTCHAR uni1E1E
ENCODING 7710
SWIDTH 580 0
DWIDTH 8 0
BBX 7 12 1 0
BITMAP
10
00
FE
42
42
40
44
7C
44
40
40
E0
ENDCHAR
STARTCHAR uni1E1F
ENCODING 7711
SWIDTH 319 0
DWIDTH 4 0
BBX 5 12 1 0
BITMAP
20
00
20
58
40
F0
40
40
40
40
40
E0
ENDCHAR
STARTCHAR uni1E20
ENCODING 7712
SWIDTH 734 0
DWIDTH 10 0
BBX 9 12 1 0
BITMAP
1E00
0000
1C00
6300
4100
8000
8000
8780
8100
4100
6100
1E00
ENDCHAR
STARTCHAR uni1E21
ENCODING 7713
SWIDTH 520 0
DWIDTH 7 0
BBX 6 12 1 -3
BITMAP
78
00
74
88
88
88
70
80
78
84
8C
70
ENDCHAR
STARTCHAR uni1E22
ENCODING 7714
SWIDTH 798 0
DWIDTH 11 0
BBX 9 12 1 0
BITMAP
0800
0000
E380
4100
4100
4100
4100
7F00
4100
4100
4100
E380
ENDCHAR
STARTCHAR uni1E23
ENCODING 7715
SWIDTH 607 0
DWIDTH 8 0
BBX 8 12 0 0
BITMAP
20
00
40
C0
40
5C
62
42
42
42
42
E7
ENDCHAR
STARTCHAR uni1E24
ENCODING 7716
SWIDTH 798 0
DWIDTH 11 0
BBX 9 12 1 -2
BITMAP
E380
4100
4100
4100
4100
7F00
4100
4100
4100
E380
0000
0800
ENDCHAR
STARTCHAR uni1E25
ENCODING 7717
SWIDTH 607 0
DWIDTH 8 0
BBX 8 12 0 -2
BITMAP
40
C0
40
5C
62
42
42
42
42
E7
00
08
ENDCHAR
STARTCHAR uni1E26
ENCODING 7718
SWIDTH 798 0
DWIDTH 11 0
BBX 9 12 1 0
BITMAP
3600
0000
E380
4100
4100
4100
4100
7F00
4100
4100
4100
E380
ENDCHAR
STARTCHAR uni1E27
ENCODING 7719
SWIDTH 607 0
DWIDTH 8 0
BBX 8 12 0 0
BITMAP
D8
00
40
C0
40
5C
62
42
42
42
42
E7
ENDCHAR
STARTCHAR uni1E28
ENCODING 7720
SWIDTH 798 0
DWIDTH 11 0
BBX 9 13 1 -3
BITMAP
E380
4100
4100
4100
4100
7F00
4100
4100
4100
E380
0800
0400
0800
ENDCHAR
STARTCHAR uni1E29
ENCODING 7721
SWIDTH 607 0
DWIDTH 8 0
BBX 8 13 0 -3
BITMAP
40
C0
40
5C
62
42
42
42
42
E7
10
08
10
ENDCHAR
STARTCHAR uni1E2A
ENCODING 7722
SWIDTH 798 0
DWIDTH 11 0
BBX 9 14 1 -4
BITMAP
E380
4100
4100
4100
4100
7F00
4100
4100
4100
E380
0000
1200
1200
0C00
ENDCHAR
STARTCHAR uni1E2B
ENCODING 7723
SWIDTH 607 0
DWIDTH 8 0
BBX 8 14 0 -4
BITMAP
40
C0
40
5C
62
42
42
42
42
E7
00
24
24
18
ENDCHAR
STARTCHAR uni1E2C
ENCODING 7724
SWIDTH 349 0
DWIDTH 5 0
BBX 5 12 0 -2
BITMAP
70
20
20
20
20
20
20
20
20
70
00
F8
ENDCHAR
STARTCHAR uni1E2D
ENCODING 7725
SWIDTH 291 0
DWIDTH 4 0
BBX 5 12 0 -2
BITMAP
20
20
00
20
60
20
20
20
20
70
00
F8
ENDCHAR
STARTCHAR uni1E2E
ENCODING 7726
SWIDTH 349 0
DWIDTH 5 0
BBX 4 15 0 0
BITMAP
10
20
40
00
90
60
20
20
20
20
20
20
20
20
70
ENDCHAR
STARTCHAR uni1E2F
ENCODING 7727
SWIDTH 291 0
DWIDTH 4 0
BBX 4 13 0 0
BITMAP
10
20
40
00
D0
00
20
60
20
20
20
20
70
ENDCHAR
STARTCHAR uni1E30
ENCODING 7728
SWIDTH 658 0
DWIDTH 9 0
BBX 9 14 1 0
BITMAP
0200
0400
0800
0000
E780
4200
4400
5800
6000
5000
4800
4400
4200
E180
ENDCHAR
STARTCHAR uni1E31
ENCODING 7729
SWIDTH 524 0
DWIDTH 7 0
BBX 7 14 0 0
BITMAP
10
20
40
00
40
C0
40
44
58
60
60
50
48
E6
ENDCHAR
STARTCHAR uni1E32
ENCODING 7730
SWIDTH 658 0
DWIDTH 9 0
BBX 9 12 1 -2
BITMAP
E780
4200
4400
5800
6000
5000
4800
4400
4200
E180
0000
0800
ENDCHAR
STARTCHAR uni1E33
ENCODING 7731
SWIDTH 524 0
DWIDTH 7 0
BBX 7 12 0 -2
BITMAP
40
C0
40
44
58
60
60
50
48
E6
00
10
ENDCHAR
STARTCHAR uni1E34
ENCODING 7732
SWIDTH 658 0
DWIDTH 9 0
BBX 9 12 1 -2
BITMAP
E780
4200
4400
5800
6000
5000
4800
4400
4200
E180
0000
3C00
ENDCHAR
STARTCHAR uni1E35
ENCODING 7733
SWIDTH 524 0
DWIDTH 7 0
BBX 7 12 0 -2
BITMAP
40
C0
40
44
58
60
60
50
48
E6
00
78
ENDCHAR
STARTCHAR uni1E36
ENCODING 7734
SWIDTH 568 0
DWIDTH 8 0
BBX 7 12 1 -2
BITMAP
E0
40
40
40
40
40
40
42
42
FC
00
10
ENDCHAR
STARTCHAR uni1E37
ENCODING 7735
SWIDTH 279 0
DWIDTH 4 0
BBX 3 12 0 -2
BITMAP
40
C0
40
40
40
40
40
40
40
E0
00
40
ENDCHAR
STARTCHAR uni1E38
ENCODING 7736
SWIDTH 568 0
DWIDTH 8 0
BBX 7 14 1 -2
BITMAP
F0
00
E0
40
40
40
40
40
40
42
42
FC
00
10
ENDCHAR
STARTCHAR uni1E39
ENCODING 7737
SWIDTH 279 0
DWIDTH 4 0
BBX 4 14 -1 -2
BITMAP
F0
00
20
60
20
20
20
20
20
20
20
70
00
20
ENDCHAR
STARTCHAR uni1E3A
ENCODING 7738
SWIDTH 568 0
DWIDTH 8 0
BBX 7 12 1 -2
BITMAP
E0
40
40
40
40
40
40
42
42
FC
00
78
ENDCHAR
STARTCHAR uni1E3B
ENCODING 7739
SWIDTH 279 0
DWIDTH 4 0
BBX 4 12 0 -2
BITMAP
40
C0
40
40
40
40
40
40
40
E0
00
F0
ENDCHAR
STARTCHAR uni1E3C
ENCODING 7740
SWIDTH 568 0
DWIDTH 8 0
BBX 7 13 1 -3
BITMAP
E0
40
40
40
40
40
40
42
42
FC
00
30
48
ENDCHAR
STARTCHAR uni1E3D
ENCODING 7741
SWIDTH 279 0
DWIDTH 4 0
BBX 4 13 0 -3
BITMAP
40
C0
40
40
40
40
40
40
40
E0
00
60
90
ENDCHAR
STARTCHAR uni1E3E
ENCODING 7742
SWIDTH 944 0
DWIDTH 13 0
BBX 11 14 1 0
BITMAP
0200
0400
0800
0000
E060
6040
50C0
5140
5140
4940
4A40
4440
4440
E4E0
ENDCHAR
STARTCHAR uni1E3F
ENCODING 7743
SWIDTH 923 0
DWIDTH 13 0
BBX 11 11 1 0
BITMAP
0200
0400
0800
0000
5B80
E440
4440
4440
4440
4440
EEE0
ENDCHAR
STARTCHAR uni1E40
ENCODING 7744
SWIDTH 944 0
DWIDTH 13 0
BBX 11 12 1 0
BITMAP
0400
0000
E060
6040
50C0
5140
5140
4940
4A40
4440
4440
E4E0
ENDCHAR
STARTCHAR uni1E41
ENCODING 7745
SWIDTH 923 0
DWIDTH 13 0
BBX 11 9 1 0
BITMAP
0800
0000
5B80
E440
4440
4440
4440
4440
EEE0
ENDCHAR
STARTCHAR uni1E42
ENCODING 7746
SWIDTH 944 0
DWIDTH 13 0
BBX 11 12 1 -2
BITMAP
E060
6040
50C0
5140
5140
4940
4A40
4440
4440
E4E0
0000
0400
ENDCHAR
STARTCHAR uni1E43
ENCODING 7747
SWIDTH 923 0
DWIDTH 13 0
BBX 11 9 1 -2
BITMAP
5B80
E440
4440
4440
4440
4440
EEE0
0000
0400
ENDCHAR
STARTCHAR uni1E44
ENCODING 7748
SWIDTH 780 0
DWIDTH 11 0
BBX 9 12 1 0
BITMAP
0800
0000
C380
6100
5100
5100
4900
4900
4500
4300
4300
E100
ENDCHAR
STARTCHAR uni1E45
ENCODING 7749
SWIDTH 619 0
DWIDTH 9 0
BBX 7 9 1 0
BITMAP
10
00
58
E4
44
44
44
44
EE
ENDCHAR
STARTCHAR uni1E46
ENCODING 7750
SWIDTH 780 0
DWIDTH 11 0
BBX 9 12 1 -2
BITMAP
C380
6100
5100
5100
4900
4900
4500
4300
4300
E100
0000
0800
ENDCHAR
STARTCHAR uni1E47
ENCODING 7751
SWIDTH 619 0
DWIDTH 9 0
BBX 7 9 1 -2
BITMAP
58
E4
44
44
44
44
EE
00
10
ENDCHAR
STARTCHAR uni1E48
ENCODING 7752
SWIDTH 780 0
DWIDTH 11 0
BBX 9 12 1 -2
BITMAP
C380
6100
5100
5100
4900
4900
4500
4300
4300
E100
0000
3C00
ENDCHAR
STARTCHAR uni1E49
ENCODING 7753
SWIDTH 619 0
DWIDTH 9 0
BBX 7 9 1 -2
BITMAP
58
E4
44
44
44
44
EE
00
3C
ENDCHAR
STARTCHAR uni1E4A
ENCODING 7754
SWIDTH 780 0
DWIDTH 11 0
BBX 9 13 1 -3
BITMAP
C380
6100
5100
5100
4900
4900
4500
4300
4300
E100
0000
1800
2400
ENDCHAR
STARTCHAR uni1E4B
ENCODING 7755
SWIDTH 619 0
DWIDTH 9 0
BBX 7 10 1 -3
BITMAP
58
E4
44
44
44
44
EE
00
18
24
ENDCHAR
STARTCHAR uni1E4C
ENCODING 7756
SWIDTH 762 0
DWIDTH 11 0
BBX 9 16 1 0
BITMAP
0200
0400
0800
0000
3A00
0600
3E00
4100
4100
8080
8080
8080
8080
4100
4100
3E00
ENDCHAR
STARTCHAR uni1E4D
ENCODING 7757
SWIDTH 577 0
DWIDTH 8 0
BBX 6 14 1 0
BITMAP
08
10
20
00
04
78
80
30
48
84
84
84
48
30
ENDCHAR
STARTCHAR uni1E4E
ENCODING 7758
SWIDTH 762 0
DWIDTH 11 0
BBX 9 14 1 0
BITMAP
3600
0000
3A00
0600
3E00
4100
4100
8080
8080
8080
8080
4100
4100
3E00
ENDCHAR
STARTCHAR uni1E4F
ENCODING 7759
SWIDTH 577 0
DWIDTH 8 0
BBX 6 12 1 0
BITMAP
6C
00
04
78
80
30
48
84
84
84
48
30
ENDCHAR
STARTCHAR uni1E50
ENCODING 7760
SWIDTH 762 0
DWIDTH 11 0
BBX 9 16 1 0
BITMAP
2000
1000
0800
0000
1E00
0000
3E00
4100
4100
8080
8080
8080
8080
4100
4100
3E00
ENDCHAR
STARTCHAR uni1E51
ENCODING 7761
SWIDTH 577 0
DWIDTH 8 0
BBX 6 13 1 0
BITMAP
40
20
10
00
78
00
30
48
84
84
84
48
30
ENDCHAR
STARTCHAR uni1E52
ENCODING 7762
SWIDTH 762 0
DWIDTH 11 0
BBX 9 16 1 0
BITMAP
0200
0400
0800
0000
1E00
0000
3E00
4100
4100
8080
8080
8080
8080
4100
4100
3E00
ENDCHAR
STARTCHAR uni1E53
ENCODING 7763
SWIDTH 577 0
DWIDTH 8 0
BBX 6 13 1 0
BITMAP
08
10
20
00
78
00
30
48
84
84
84
48
30
ENDCHAR
STARTCHAR uni1E54
ENCODING 7764
SWIDTH 600 0
DWIDTH 8 0
BBX 7 14 1 0
BITMAP
08
10
20
00
F8
44
42
42
44
78
40
40
40
E0
ENDCHAR
STARTCHAR uni1E55
ENCODING 7765
SWIDTH 608 0
DWIDTH 8 0
BBX 7 14 1 -3
BITMAP
04
08
10
00
5C
E2
42
42
42
44
78
40
40
E0
ENDCHAR
STARTCHAR uni1E56
ENCODING 7766
SWIDTH 600 0
DWIDTH 8 0
BBX 7 12 1 0
BITMAP
10
00
F8
44
42
42
44
78
40
40
40
E0
ENDCHAR
STARTCHAR uni1E57
ENCODING 7767
SWIDTH 608 0
DWIDTH 8 0
BBX 7 12 1 -3
BITMAP
10
00
5C
E2
42
42
42
44
78
40
40
E0
ENDCHAR
STARTCHAR uni1E58
ENCODING 7768
SWIDTH 644 0
DWIDTH 9 0
BBX 8 12 1 0
BITMAP
10
00
F8
44
42
42
44
78
44
42
42
E1
ENDCHAR
STARTCHAR uni1E59
ENCODING 7769
SWIDTH 389 0
DWIDTH 5 0
BBX 5 9 1 0
BITMAP
20
00
78
C0
40
40
40
40
E0
ENDCHAR
STARTCHAR uni1E5A
ENCODING 7770
SWIDTH 644 0
DWIDTH 9 0
BBX 8 12 1 -2
BITMAP
F8
44
42
42
44
78
44
42
42
E1
00
10
ENDCHAR
STARTCHAR uni1E5B
ENCODING 7771
SWIDTH 389 0
DWIDTH 5 0
BBX 5 9 1 -2
BITMAP
78
C0
40
40
40
40
E0
00
40
ENDCHAR
STARTCHAR uni1E5C
ENCODING 7772
SWIDTH 644 0
DWIDTH 9 0
BBX 8 14 1 -2
BITMAP
78
00
F8
44
42
42
44
78
44
42
42
E1
00
10
ENDCHAR
STARTCHAR uni1E5D
ENCODING 7773
SWIDTH 389 0
DWIDTH 5 0
BBX 5 11 1 -2
BITMAP
F0
00
78
C0
40
40
40
40
E0
00
40
ENDCHAR
STARTCHAR uni1E5E
ENCODING 7774
SWIDTH 644 0
DWIDTH 9 0
BBX 8 12 1 -2
BITMAP
F8
44
42
42
44
78
44
42
42
E1
00
3C
ENDCHAR
STARTCHAR uni1E5F
ENCODING 7775
SWIDTH 389 0
DWIDTH 5 0
BBX 5 9 1 -2
BITMAP
78
C0
40
40
40
40
E0
00
F0
ENDCHAR
STARTCHAR uni1E60
ENCODING 7776
SWIDTH 541 0
DWIDTH 8 0
BBX 6 12 1 0
BITMAP
10
00
30
CC
84
80
60
38
84
84
8C
70
ENDCHAR
STARTCHAR uni1E61
ENCODING 7777
SWIDTH 436 0
DWIDTH 6 0
BBX 4 9 1 0
BITMAP
20
00
60
90
80
60
10
90
60
ENDCHAR
STARTCHAR uni1E62
ENCODING 7778
SWIDTH 541 0
DWIDTH 8 0
BBX 6 12 1 -2
BITMAP
30
CC
84
80
60
38
84
84
8C
70
00
10
ENDCHAR
STARTCHAR uni1E63
ENCODING 7779
SWIDTH 436 0
DWIDTH 6 0
BBX 4 9 1 -2
BITMAP
60
90
80
60
10
90
60
00
20
ENDCHAR
STARTCHAR uni1E64
ENCODING 7780
SWIDTH 541 0
DWIDTH 8 0
BBX 6 16 1 0
BITMAP
10
00
08
10
20
00
30
CC
84
80
60
38
84
84
8C
70
ENDCHAR
STARTCHAR uni1E65
ENCODING 7781
SWIDTH 436 0
DWIDTH 6 0
BBX 4 13 1 0
BITMAP
20
00
10
20
40
00
60
90
80
60
10
90
60
ENDCHAR
STARTCHAR uni1E66
ENCODING 7782
SWIDTH 541 0
DWIDTH 8 0
BBX 6 14 1 0
BITMAP
10
00
78
00
30
CC
84
80
60
38
04
84
8C
70
ENDCHAR
STARTCHAR uni1E67
ENCODING 7783
SWIDTH 436 0
DWIDTH 6 0
BBX 5 12 0 0
BITMAP
20
00
D8
20
00
30
48
40
30
08
48
30
ENDCHAR
STARTCHAR uni1E68
ENCODING 7784
SWIDTH 541 0
DWIDTH 8 0
BBX 6 14 1 -2
BITMAP
20
00
30
CC
84
80
60
38
84
84
8C
70
00
10
ENDCHAR
STARTCHAR uni1E69
ENCODING 7785
SWIDTH 436 0
DWIDTH 6 0
BBX 4 11 1 -2
BITMAP
40
00
60
90
80
60
10
90
60
00
20
ENDCHAR
STARTCHAR uni1E6A
ENCODING 7786
SWIDTH 621 0
DWIDTH 9 0
BBX 9 12 0 0
BITMAP
0800
0000
FF80
8880
8880
0800
0800
0800
0800
0800
0800
3E00
ENDCHAR
STARTCHAR uni1E6B
ENCODING 7787
SWIDTH 344 0
DWIDTH 5 0
BBX 4 11 1 0
BITMAP
40
00
40
40
F0
40
40
40
40
40
30
ENDCHAR
STARTCHAR uni1E6C
ENCODING 7788
SWIDTH 621 0
DWIDTH 9 0
BBX 9 12 0 -2
BITMAP
FF80
8880
8880
0800
0800
0800
0800
0800
0800
3E00
0000
0800
ENDCHAR
STARTCHAR uni1E6D
ENCODING 7789
SWIDTH 344 0
DWIDTH 5 0
BBX 4 11 1 -2
BITMAP
40
40
F0
40
40
40
40
40
30
00
20
ENDCHAR
STARTCHAR uni1E6E
ENCODING 7790
SWIDTH 621 0
DWIDTH 9 0
BBX 9 12 0 -2
BITMAP
FF80
8880
8880
0800
0800
0800
0800
0800
0800
3E00
0000
1E00
ENDCHAR
STARTCHAR uni1E6F
ENCODING 7791
SWIDTH 344 0
DWIDTH 5 0
BBX 4 11 1 -2
BITMAP
40
40
F0
40
40
40
40
40
30
00
F0
ENDCHAR
STARTCHAR uni1E70
ENCODING 7792
SWIDTH 621 0
DWIDTH 9 0
BBX 9 13 0 -3
BITMAP
FF80
8880
8880
0800
0800
0800
0800
0800
0800
3E00
0000
0C00
1200
ENDCHAR
STARTCHAR uni1E71
ENCODING 7793
SWIDTH 344 0
DWIDTH 5 0
BBX 4 12 1 -3
BITMAP
40
40
F0
40
40
40
40
40
30
00
60
90
ENDCHAR
STARTCHAR uni1E72
ENCODING 7794
SWIDTH 791 0
DWIDTH 11 0
BBX 9 12 1 -2
BITMAP
E380
4100
4100
4100
4100
4100
4100
4100
2200
1C00
0000
3600
ENDCHAR
STARTCHAR uni1E73
ENCODING 7795
SWIDTH 606 0
DWIDTH 8 0
BBX 8 9 0 -2
BITMAP
42
C6
42
42
42
46
3B
00
36
ENDCHAR
STARTCHAR uni1E74
ENCODING 7796
SWIDTH 791 0
DWIDTH 11 0
BBX 9 12 1 -2
BITMAP
E380
4100
4100
4100
4100
4100
4100
4100
2200
1C00
0000
3E00
ENDCHAR
STARTCHAR uni1E75
ENCODING 7797
SWIDTH 606 0
DWIDTH 8 0
BBX 8 9 0 -2
BITMAP
42
C6
42
42
42
46
3B
00
3E
ENDCHAR
STARTCHAR uni1E76
ENCODING 7798
SWIDTH 791 0
DWIDTH 11 0
BBX 9 13 1 -3
BITMAP
E380
4100
4100
4100
4100
4100
4100
4100
2200
1C00
0000
0C00
1200
ENDCHAR
STARTCHAR uni1E77
ENCODING 7799
SWIDTH 606 0
DWIDTH 8 0
BBX 8 10 0 -3
BITMAP
42
C6
42
42
42
46
3B
00
0C
12
ENDCHAR
STARTCHAR uni1E78
ENCODING 7800
SWIDTH 791 0
DWIDTH 11 0
BBX 9 16 1 0
BITMAP
0200
0400
0800
0000
3E00
0000
E380
4100
4100
4100
4100
4100
4100
4100
2200
1C00
ENDCHAR
STARTCHAR uni1E79
ENCODING 7801
SWIDTH 606 0
DWIDTH 8 0
BBX 8 13 0 0
BITMAP
04
08
10
00
7C
00
42
C6
42
42
42
46
3B
ENDCHAR
STARTCHAR uni1E7A
ENCODING 7802
SWIDTH 791 0
DWIDTH 11 0
BBX 9 14 1 0
BITMAP
3600
0000
1E00
0000
E380
4100
4100
4100
4100
4100
4100
4100
2200
1C00
ENDCHAR
STARTCHAR uni1E7B
ENCODING 7803
SWIDTH 606 0
DWIDTH 8 0
BBX 8 11 0 0
BITMAP
36
00
3C
00
42
C6
42
42
42
46
3B
ENDCHAR
STARTCHAR uni1E7C
ENCODING 7804
SWIDTH 634 0
DWIDTH 9 0
BBX 10 12 0 0
BITMAP
3E00
0000
F1C0
2080
2100
2100
1100
1200
1200
0C00
0800
0800
ENDCHAR
STARTCHAR uni1E7D
ENCODING 7805
SWIDTH 504 0
DWIDTH 7 0
BBX 7 9 0 0
BITMAP
7C
00
EE
44
44
28
28
28
10
ENDCHAR
STARTCHAR uni1E7E
ENCODING 7806
SWIDTH 634 0
DWIDTH 9 0
BBX 10 12 0 -2
BITMAP
F1C0
2080
2100
2100
1100
1200
1200
0C00
0800
0800
0000
0800
ENDCHAR
STARTCHAR uni1E7F
ENCODING 7807
SWIDTH 504 0
DWIDTH 7 0
BBX 7 9 0 -2
BITMAP
EE
44
44
28
28
28
10
00
10
ENDCHAR
STARTCHAR Wgrave
ENCODING 7808
SWIDTH 940 0
DWIDTH 13 0
BBX 14 14 0 0
BITMAP
0400
0200
0100
0000
E01C
4208
4208
4510
2510
2490
2490
28A0
1860
1040
ENDCHAR
STARTCHAR wgrave
ENCODING 7809
SWIDTH 768 0
DWIDTH 11 0
BBX 11 11 0 0
BITMAP
1000
0800
0400
0000
E0E0
4440
4A40
2A80
2A80
2980
1100
ENDCHAR
STARTCHAR Wacute
ENCODING 7810
SWIDTH 940 0
DWIDTH 13 0
BBX 14 14 0 0
BITMAP
0080
0100
0200
0000
E01C
4208
4208
4510
2510
2490
2490
28A0
1860
1040
ENDCHAR
STARTCHAR wacute
ENCODING 7811
SWIDTH 768 0
DWIDTH 11 0
BBX 11 11 0 0
BITMAP
0100
0200
0400
0000
E0E0
4440
4A40
2A80
2A80
2980
1100
ENDCHAR
STARTCHAR Wdieresis
ENCODING 7812
SWIDTH 940 0
DWIDTH 13 0
BBX 14 12 0 0
BITMAP
0D80
0000
E01C
4208
4208
4510
2510
2490
2490
28A0
1860
1040
ENDCHAR
STARTCHAR wdieresis
ENCODING 7813
SWIDTH 768 0
DWIDTH 11 0
BBX 11 9 0 0
BITMAP
1B00
0000
E0E0
4440
4A40
2A80
2A80
2980
1100
ENDCHAR
STARTCHAR uni1E86
ENCODING 7814
SWIDTH 940 0
DWIDTH 13 0
BBX 14 12 0 0
BITMAP
0200
0000
E01C
4208
4208
4510
2510
2490
2490
28A0
1860
1040
ENDCHAR
STARTCHAR uni1E87
ENCODING 7815
SWIDTH 768 0
DWIDTH 11 0
BBX 11 9 0 0
BITMAP
0400
0000
E0E0
4440
4A40
2A80
2A80
2980
1100
ENDCHAR
STARTCHAR uni1E88
ENCODING 7816
SWIDTH 940 0
DWIDTH 13 0
BBX 14 12 0 -2
BITMAP
E01C
4208
4208
4510
2510
2490
2490
28A0
1860
1040
0000
0200
ENDCHAR
STARTCHAR uni1E89
ENCODING 7817
SWIDTH 768 0
DWIDTH 11 0
BBX 11 9 0 -2
BITMAP
E0E0
4440
4A40
2A80
2A80
2980
1100
0000
0400
ENDCHAR
STARTCHAR uni1E8A
ENCODING 7818
SWIDTH 624 0
DWIDTH 9 0
BBX 9 12 0 0
BITMAP
0800
0000
F380
2100
2200
1400
0800
1800
1400
2200
4200
E780
ENDCHAR
STARTCHAR uni1E8B
ENCODING 7819
SWIDTH 486 0
DWIDTH 7 0
BBX 7 9 0 0
BITMAP
10
00
EE
44
28
10
28
48
EE
ENDCHAR
STARTCHAR uni1E8C
ENCODING 7820
SWIDTH 624 0
DWIDTH 9 0
BBX 9 12 0 0
BITMAP
3600
0000
F380
2100
2200
1400
0800
1800
1400
2200
4200
E780
ENDCHAR
STARTCHAR uni1E8D
ENCODING 7821
SWIDTH 486 0
DWIDTH 7 0
BBX 7 9 0 0
BITMAP
6C
00
EE
44
28
10
28
48
EE
ENDCHAR
STARTCHAR uni1E8E
ENCODING 7822
SWIDTH 588 0
DWIDTH 8 0
BBX 9 12 0 0
BITMAP
0800
0000
F380
2100
2200
1200
1400
0800
0800
0800
0800
1E00
ENDCHAR
STARTCHAR uni1E8F
ENCODING 7823
SWIDTH 506 0
DWIDTH 7 0
BBX 7 12 0 -3
BITMAP
10
00
EE
44
44
28
28
10
10
10
20
40
ENDCHAR
STARTCHAR uni1E90
ENCODING 7824
SWIDTH 610 0
DWIDTH 8 0
BBX 9 13 0 0
BITMAP
0C00
1200
0000
7F80
4100
4200
0400
0400
0800
1000
2080
4080
FF80
ENDCHAR
STARTCHAR uni1E91
ENCODING 7825
SWIDTH 480 0
DWIDTH 7 0
BBX 7 10 0 0
BITMAP
18
24
00
7E
44
08
08
10
22
FE
ENDCHAR
STARTCHAR uni1E92
ENCODING 7826
SWIDTH 610 0
DWIDTH 8 0
BBX 9 12 0 -2
BITMAP
7F80
4100
4200
0400
0400
0800
1000
2080
4080
FF80
0000
0800
ENDCHAR
STARTCHAR uni1E93
ENCODING 7827
SWIDTH 480 0
DWIDTH 7 0
BBX 7 9 0 -2
BITMAP
7E
44
08
08
10
22
FE
00
10
ENDCHAR
STARTCHAR uni1E94
ENCODING 7828
SWIDTH 610 0
DWIDTH 8 0
BBX 9 12 0 -2
BITMAP
7F80
4100
4200
0400
0400
0800
1000
2080
4080
FF80
0000
1E00
ENDCHAR
STARTCHAR uni1E95
ENCODING 7829
SWIDTH 480 0
DWIDTH 7 0
BBX 7 9 0 -2
BITMAP
7E
44
08
08
10
22
FE
00
3C
ENDCHAR
STARTCHAR uni1E96
ENCODING 7830
SWIDTH 607 0
DWIDTH 8 0
BBX 8 12 0 -2
BITMAP
40
C0
40
5C
62
42
42
42
42
E7
00
3C
ENDCHAR
STARTCHAR uni1E97
ENCODING 7831
SWIDTH 344 0
DWIDTH 5 0
BBX 5 11 0 0
BITMAP
D8
00
20
20
78
20
20
20
20
20
18
ENDCHAR
STARTCHAR uni1E98
ENCODING 7832
SWIDTH 768 0
DWIDTH 11 0
BBX 11 12 0 0
BITMAP
0400
0A00
0A00
0400
0000
E0E0
4440
4A40
2A80
2A80
2980
1100
ENDCHAR
STARTCHAR uni1E99
ENCODING 7833
SWIDTH 506 0
DWIDTH 7 0
BBX 7 15 0 -3
BITMAP
10
28
28
10
00
EE
44
44
28
28
10
10
10
20
40
ENDCHAR
STARTCHAR uni1EA0
ENCODING 7840
SWIDTH 635 0
DWIDTH 9 0
BBX 9 12 0 -2
BITMAP
0800
1800
1400
1400
2400
1C00
2200
4200
4100
E380
0000
0800
ENDCHAR
STARTCHAR uni1EA1
ENCODING 7841
SWIDTH 523 0
DWIDTH 7 0
BBX 6 9 1 -2
BITMAP
70
88
08
78
88
98
64
00
10
ENDCHAR
STARTCHAR uni1EA4
ENCODING 7844
SWIDTH 635 0
DWIDTH 9 0
BBX 9 16 0 0
BITMAP
0200
0400
0800
0000
1C00
2200
0800
1800
1400
1400
2400
1C00
2200
4200
4100
E380
ENDCHAR
STARTCHAR uni1EA5
ENCODING 7845
SWIDTH 523 0
DWIDTH 7 0
BBX 6 14 1 0
BITMAP
08
10
20
00
20
58
00
70
88
08
78
88
98
64
ENDCHAR
STARTCHAR uni1EA6
ENCODING 7846
SWIDTH 635 0
DWIDTH 9 0
BBX 9 16 0 0
BITMAP
2000
1000
0800
0000
1C00
2200
0800
1800
1400
1400
2400
1C00
2200
4200
4100
E380
ENDCHAR
STARTCHAR uni1EA7
ENCODING 7847
SWIDTH 523 0
DWIDTH 7 0
BBX 6 14 1 0
BITMAP
40
20
10
00
20
58
00
70
88
08
78
88
98
64
ENDCHAR
STARTCHAR uni1EAA
ENCODING 7850
SWIDTH 635 0
DWIDTH 9 0
BBX 9 14 0 0
BITMAP
3E00
0000
1C00
2200
0800
1800
1400
1400
2400
1C00
2200
4200
4100
E380
ENDCHAR
STARTCHAR uni1EAB
ENCODING 7851
SWIDTH 523 0
DWIDTH 7 0
BBX 6 12 1 0
BITMAP
7C
00
20
58
00
70
88
08
78
88
98
64
ENDCHAR
STARTCHAR uni1EAC
ENCODING 7852
SWIDTH 635 0
DWIDTH 9 0
BBX 9 15 0 -2
BITMAP
1800
2400
0000
0800
1800
1400
1400
2400
1C00
2200
4200
4100
E380
0000
0800
ENDCHAR
STARTCHAR uni1EAD
ENCODING 7853
SWIDTH 523 0
DWIDTH 7 0
BBX 6 12 1 -2
BITMAP
30
48
00
70
88
08
78
88
98
64
00
10
ENDCHAR
STARTCHAR uni1EAE
ENCODING 7854
SWIDTH 635 0
DWIDTH 9 0
BBX 9 18 0 0
BITMAP
0400
0800
1000
0000
2400
2400
1800
0000
0800
1800
1400
1400
2400
1C00
2200
4200
4100
E380
ENDCHAR
STARTCHAR uni1EAF
ENCODING 7855
SWIDTH 523 0
DWIDTH 7 0
BBX 6 15 1 0
BITMAP
08
10
20
00
48
48
30
00
70
88
08
78
88
98
64
ENDCHAR
STARTCHAR uni1EB0
ENCODING 7856
SWIDTH 635 0
DWIDTH 9 0
BBX 9 18 0 0
BITMAP
2000
1000
0800
0000
2400
2400
1800
0000
0800
1800
1400
1400
2400
1C00
2200
4200
4100
E380
ENDCHAR
STARTCHAR uni1EB1
ENCODING 7857
SWIDTH 523 0
DWIDTH 7 0
BBX 6 15 1 0
BITMAP
40
20
10
00
48
48
30
00
70
88
08
78
88
98
64
ENDCHAR
STARTCHAR uni1EB4
ENCODING 7860
SWIDTH 635 0
DWIDTH 9 0
BBX 9 16 0 0
BITMAP
3E00
0000
2400
2400
1800
0000
0800
1800
1400
1400
2400
1C00
2200
4200
4100
E380
ENDCHAR
STARTCHAR uni1EB5
ENCODING 7861
SWIDTH 523 0
DWIDTH 7 0
BBX 6 13 1 0
BITMAP
7C
00
48
48
30
00
70
88
08
78
88
98
64
ENDCHAR
STARTCHAR uni1EB6
ENCODING 7862
SWIDTH 635 0
DWIDTH 9 0
BBX 9 16 0 -2
BITMAP
2400
2400
1800
0000
0800
1800
1400
1400
2400
1C00
2200
4200
4100
E380
0000
0800
ENDCHAR
STARTCHAR uni1EB7
ENCODING 7863
SWIDTH 523 0
DWIDTH 7 0
BBX 6 13 1 -2
BITMAP
48
48
30
00
70
88
08
78
88
98
64
00
10
ENDCHAR
STARTCHAR uni1EB8
ENCODING 7864
SWIDTH 606 0
DWIDTH 8 0
BBX 7 12 1 -2
BITMAP
FE
42
42
40
44
7C
44
40
42
FE
00
10
ENDCHAR
STARTCHAR uni1EB9
ENCODING 7865
SWIDTH 514 0
DWIDTH 7 0
BBX 5 9 1 -2
BITMAP
30
48
88
F0
80
88
70
00
20
ENDCHAR
STARTCHAR uni1EBC
ENCODING 7868
SWIDTH 606 0
DWIDTH 8 0
BBX 7 12 1 0
BITMAP
7C
00
FE
42
42
40
44
7C
44
40
42
FE
ENDCHAR
STARTCHAR uni1EBD
ENCODING 7869
SWIDTH 514 0
DWIDTH 7 0
BBX 5 9 1 0
BITMAP
F8
00
30
48
88
F0
80
88
70
ENDCHAR
STARTCHAR uni1EBE
ENCODING 7870
SWIDTH 606 0
DWIDTH 8 0
BBX 7 16 1 0
BITMAP
04
08
10
00
18
60
FE
42
42
40
44
7C
44
40
42
FE
ENDCHAR
STARTCHAR uni1EBF
ENCODING 7871
SWIDTH 514 0
DWIDTH 7 0
BBX 5 14 1 0
BITMAP
08
10
20
00
20
50
00
30
48
88
F0
80
88
70
ENDCHAR
STARTCHAR uni1EC0
ENCODING 7872
SWIDTH 606 0
DWIDTH 8 0
BBX 7 16 1 0
BITMAP
40
20
10
00
18
60
FE
42
42
40
44
7C
44
40
42
FE
ENDCHAR
STARTCHAR uni1EC1
ENCODING 7873
SWIDTH 514 0
DWIDTH 7 0
BBX 5 14 1 0
BITMAP
80
40
20
00
20
50
00
30
48
88
F0
80
88
70
ENDCHAR
STARTCHAR uni1EC4
ENCODING 7876
SWIDTH 606 0
DWIDTH 8 0
BBX 7 14 1 0
BITMAP
7C
00
18
60
FE
42
42
40
44
7C
44
40
42
FE
ENDCHAR
STARTCHAR uni1EC5
ENCODING 7877
SWIDTH 514 0
DWIDTH 7 0
BBX 5 12 1 0
BITMAP
F8
00
20
50
00
30
48
88
F0
80
88
70
ENDCHAR
STARTCHAR uni1EC6
ENCODING 7878
SWIDTH 606 0
DWIDTH 8 0
BBX 7 15 1 -2
BITMAP
18
24
00
FE
42
42
40
44
7C
44
40
42
FE
00
10
ENDCHAR
STARTCHAR uni1EC7
ENCODING 7879
SWIDTH 514 0
DWIDTH 7 0
BBX 5 12 1 -2
BITMAP
30
48
00
30
48
88
F0
80
88
70
00
20
ENDCHAR
STARTCHAR uni1ECA
ENCODING 7882
SWIDTH 349 0
DWIDTH 5 0
BBX 3 12 1 -2
BITMAP
E0
40
40
40
40
40
40
40
40
E0
00
40
ENDCHAR
STARTCHAR uni1ECB
ENCODING 7883
SWIDTH 291 0
DWIDTH 4 0
BBX 3 12 1 -2
BITMAP
40
40
00
40
C0
40
40
40
40
E0
00
40
ENDCHAR
STARTCHAR uni1ECC
ENCODING 7884
SWIDTH 762 0
DWIDTH 11 0
BBX 9 12 1 -2
BITMAP
3E00
4100
4100
8080
8080
8080
8080
4100
4100
3E00
0000
0800
ENDCHAR
STARTCHAR uni1ECD
ENCODING 7885
SWIDTH 577 0
DWIDTH 8 0
BBX 6 9 1 -2
BITMAP
30
48
84
84
84
48
30
00
10
ENDCHAR
STARTCHAR uni1ED0
ENCODING 7888
SWIDTH 762 0
DWIDTH 11 0
BBX 9 16 1 0
BITMAP
0200
0400
0800
0000
0800
3600
3E00
4100
4100
8080
8080
8080
8080
4100
4100
3E00
ENDCHAR
STARTCHAR uni1ED1
ENCODING 7889
SWIDTH 577 0
DWIDTH 8 0
BBX 6 14 1 0
BITMAP
08
10
20
00
30
48
00
30
48
84
84
84
48
30
ENDCHAR
STARTCHAR uni1ED2
ENCODING 7890
SWIDTH 762 0
DWIDTH 11 0
BBX 9 16 1 0
BITMAP
2000
1000
0800
0000
0800
3600
3E00
4100
4100
8080
8080
8080
8080
4100
4100
3E00
ENDCHAR
STARTCHAR uni1ED3
ENCODING 7891
SWIDTH 577 0
DWIDTH 8 0
BBX 6 14 1 0
BITMAP
40
20
10
00
30
48
00
30
48
84
84
84
48
30
ENDCHAR
STARTCHAR uni1ED6
ENCODING 7894
SWIDTH 762 0
DWIDTH 11 0
BBX 9 14 1 0
BITMAP
3E00
0000
0800
3600
3E00
4100
4100
8080
8080
8080
8080
4100
4100
3E00
ENDCHAR
STARTCHAR uni1ED7
ENCODING 7895
SWIDTH 577 0
DWIDTH 8 0
BBX 6 12 1 0
BITMAP
7C
00
30
48
00
30
48
84
84
84
48
30
ENDCHAR
STARTCHAR uni1ED8
ENCODING 7896
SWIDTH 762 0
DWIDTH 11 0
BBX 9 15 1 -2
BITMAP
0C00
1200
0000
3E00
4100
4100
8080
8080
8080
8080
4100
4100
3E00
0000
0800
ENDCHAR
STARTCHAR uni1ED9
ENCODING 7897
SWIDTH 577 0
DWIDTH 8 0
BBX 6 12 1 -2
BITMAP
30
48
00
30
48
84
84
84
48
30
00
10
ENDCHAR
STARTCHAR uni1EDA
ENCODING 7898
SWIDTH 762 0
DWIDTH 11 0
BBX 10 14 1 0
BITMAP
0100
0200
0400
0000
3EC0
4140
4140
8080
8080
8080
8080
4100
4100
3E00
ENDCHAR
STARTCHAR uni1EDB
ENCODING 7899
SWIDTH 577 0
DWIDTH 8 0
BBX 8 11 1 0
BITMAP
02
04
08
00
33
49
85
86
84
48
30
ENDCHAR
STARTCHAR uni1EDC
ENCODING 7900
SWIDTH 762 0
DWIDTH 11 0
BBX 10 14 1 0
BITMAP
1000
0800
0400
0000
3EC0
4140
4140
8080
8080
8080
8080
4100
4100
3E00
ENDCHAR
STARTCHAR uni1EDD
ENCODING 7901
SWIDTH 577 0
DWIDTH 8 0
BBX 8 11 1 0
BITMAP
20
10
08
00
33
49
85
86
84
48
30
ENDCHAR
STARTCHAR uni1EE0
ENCODING 7904
SWIDTH 762 0
DWIDTH 11 0
BBX 10 12 1 0
BITMAP
1F00
0000
3EC0
4140
4140
8080
8080
8080
8080
4100
4100
3E00
ENDCHAR
STARTCHAR uni1EE1
ENCODING 7905
SWIDTH 577 0
DWIDTH 8 0
BBX 8 9 1 0
BITMAP
3E
00
33
49
85
86
84
48
30
ENDCHAR
STARTCHAR uni1EE2
ENCODING 7906
SWIDTH 762 0
DWIDTH 11 0
BBX 10 12 1 -2
BITMAP
3EC0
4140
4140
8080
8080
8080
8080
4100
4100
3E00
0000
0800
ENDCHAR
STARTCHAR uni1EE3
ENCODING 7907
SWIDTH 577 0
DWIDTH 8 0
BBX 8 9 1 -2
BITMAP
33
49
85
86
84
48
30
00
10
ENDCHAR
STARTCHAR uni1EE4
ENCODING 7908
SWIDTH 791 0
DWIDTH 11 0
BBX 9 12 1 -2
BITMAP
E380
4100
4100
4100
4100
4100
4100
4100
2200
1C00
0000
0800
ENDCHAR
STARTCHAR uni1EE5
ENCODING 7909
SWIDTH 606 0
DWIDTH 8 0
BBX 8 9 0 -2
BITMAP
42
C6
42
42
42
46
3B
00
08
ENDCHAR
STARTCHAR uni1EE8
ENCODING 7912
SWIDTH 791 0
DWIDTH 11 0
BBX 10 14 1 0
BITMAP
0100
0200
0400
0000
E3C0
4140
4140
4180
4100
4100
4100
4100
2200
1C00
ENDCHAR
STARTCHAR uni1EE9
ENCODING 7913
SWIDTH 606 0
DWIDTH 8 0
BBX 10 11 0 0
BITMAP
0100
0200
0400
0000
42C0
C640
4240
4280
4200
4600
3B00
ENDCHAR
STARTCHAR uni1EEA
ENCODING 7914
SWIDTH 791 0
DWIDTH 11 0
BBX 10 14 1 0
BITMAP
1000
0800
0400
0000
E3C0
4140
4140
4180
4100
4100
4100
4100
2200
1C00
ENDCHAR
STARTCHAR uni1EEB
ENCODING 7915
SWIDTH 606 0
DWIDTH 8 0
BBX 10 11 0 0
BITMAP
1000
0800
0400
0000
42C0
C640
4240
4280
4200
4600
3B00
ENDCHAR
STARTCHAR uni1EEE
ENCODING 7918
SWIDTH 791 0
DWIDTH 11 0
BBX 10 12 1 0
BITMAP
1F00
0000
E3C0
4140
4140
4180
4100
4100
4100
4100
2200
1C00
ENDCHAR
STARTCHAR uni1EEF
ENCODING 7919
SWIDTH 606 0
DWIDTH 8 0
BBX 10 9 0 0
BITMAP
1F00
0000
42C0
C640
4240
4280
4200
4600
3B00
ENDCHAR
STARTCHAR uni1EF0
ENCODING 7920
SWIDTH 791 0
DWIDTH 11 0
BBX 10 12 1 -2
BITMAP
E3C0
4140
4140
4180
4100
4100
4100
4100
2200
1C00
0000
0800
ENDCHAR
STARTCHAR uni1EF1
ENCODING 7921
SWIDTH 606 0
DWIDTH 8 0
BBX 10 9 0 -2
BITMAP
42C0
C640
4240
4280
4200
4600
3B00
0000
0800
ENDCHAR
STARTCHAR Ygrave
ENCODING 7922
SWIDTH 588 0
DWIDTH 8 0
BBX 9 14 0 0
BITMAP
2000
1000
0800
0000
F380
2100
2200
1200
1400
0800
0800
0800
0800
1E00
ENDCHAR
STARTCHAR ygrave
ENCODING 7923
SWIDTH 506 0
DWIDTH 7 0
BBX 7 14 0 -3
BITMAP
40
20
10
00
EE
44
44
28
28
10
10
10
20
40
ENDCHAR
STARTCHAR uni1EF4
ENCODING 7924
SWIDTH 588 0
DWIDTH 8 0
BBX 9 12 0 -2
BITMAP
F380
2100
2200
1200
1400
0800
0800
0800
0800
1E00
0000
0800
ENDCHAR
STARTCHAR uni1EF5
ENCODING 7925
SWIDTH 506 0
DWIDTH 7 0
BBX 7 12 0 -5
BITMAP
EE
44
44
28
28
10
10
10
20
40
00
20
ENDCHAR
STARTCHAR uni1EF8
ENCODING 7928
SWIDTH 588 0
DWIDTH 8 0
BBX 9 12 0 0
BITMAP
3E00
0000
F380
2100
2200
1200
1400
0800
0800
0800
0800
1E00
ENDCHAR
STARTCHAR uni1EF9
ENCODING 7929
SWIDTH 506 0
DWIDTH 7 0
BBX 7 12 0 -3
BITMAP
7C
00
EE
44
44
28
28
10
10
10
20
40
ENDCHAR
STARTCHAR uni2000
ENCODING 8192
SWIDTH 500 0
DWIDTH 7 0
BBX 1 1 0 0
BITMAP
00
ENDCHAR
STARTCHAR uni2001
ENCODING 8193
SWIDTH 1000 0
DWIDTH 14 0
BBX 1 1 0 0
BITMAP
00
ENDCHAR
STARTCHAR uni2002
ENCODING 8194
SWIDTH 500 0
DWIDTH 7 0
BBX 1 1 0 0
BITMAP
00
ENDCHAR
STARTCHAR uni2003
ENCODING 8195
SWIDTH 1000 0
DWIDTH 14 0
BBX 1 1 0 0
BITMAP
00
ENDCHAR
STARTCHAR uni2004
ENCODING 8196
SWIDTH 333 0
DWIDTH 5 0
BBX 1 1 0 0
BITMAP
00
ENDCHAR
STARTCHAR uni2005
ENCODING 8197
SWIDTH 250 0
DWIDTH 3 0
BBX 1 1 0 0
BITMAP
00
ENDCHAR
STARTCHAR uni2006
ENCODING 8198
SWIDTH 167 0
DWIDTH 2 0
BBX 1 1 0 0
BITMAP
00
ENDCHAR
STARTCHAR uni2007
ENCODING 8199
SWIDTH 530 0
DWIDTH 7 0
BBX 1 1 0 0
BITMAP
00
ENDCHAR
STARTCHAR uni2008
ENCODING 8200
SWIDTH 265 0
DWIDTH 4 0
BBX 1 1 0 0
BITMAP
00
ENDCHAR
STARTCHAR uni2009
ENCODING 8201
SWIDTH 200 0
DWIDTH 3 0
BBX 1 1 0 0
BITMAP
00
ENDCHAR
STARTCHAR uni200A
ENCODING 8202
SWIDTH 100 0
DWIDTH 1 0
BBX 1 1 0 0
BITMAP
00
ENDCHAR
STARTCHAR uni200B
ENCODING 8203
SWIDTH 0 0
DWIDTH 0 0
BBX 1 1 0 0
BITMAP
00
ENDCHAR
STARTCHAR uni2010
ENCODING 8208
SWIDTH 392 0
DWIDTH 5 0
BBX 3 1 1 3
BITMAP
E0
ENDCHAR
STARTCHAR uni2011
ENCODING 8209
SWIDTH 392 0
DWIDTH 5 0
BBX 3 1 1 3
BITMAP
E0
ENDCHAR
STARTCHAR figuredash
ENCODING 8210
SWIDTH 500 0
DWIDTH 7 0
BBX 7 1 0 3
BITMAP
FE
ENDCHAR
STARTCHAR endash
ENCODING 8211
SWIDTH 500 0
DWIDTH 7 0
BBX 7 1 0 3
BITMAP
FE
ENDCHAR
STARTCHAR emdash
ENCODING 8212
SWIDTH 1000 0
DWIDTH 14 0
BBX 14 1 0 3
BITMAP
FFFC
ENDCHAR
STARTCHAR afii00208
ENCODING 8213
SWIDTH 1000 0
DWIDTH 14 0
BBX 14 1 0 3
BITMAP
FFFC
ENDCHAR
STARTCHAR quoteleft
ENCODING 8216
SWIDTH 278 0
DWIDTH 4 0
BBX 2 4 1 7
BITMAP
40
80
80
C0
ENDCHAR
STARTCHAR quoteright
ENCODING 8217
SWIDTH 278 0
DWIDTH 4 0
BBX 2 4 1 6
BITMAP
C0
40
40
80
ENDCHAR
STARTCHAR quotesinglbase
ENCODING 8218
SWIDTH 278 0
DWIDTH 4 0
BBX 2 4 1 -2
BITMAP
C0
40
40
80
ENDCHAR
STARTCHAR quotereversed
ENCODING 8219
SWIDTH 278 0
DWIDTH 4 0
BBX 2 4 1 6
BITMAP
C0
80
80
40
ENDCHAR
STARTCHAR quotedblleft
ENCODING 8220
SWIDTH 458 0
DWIDTH 6 0
BBX 4 4 1 7
BITMAP
50
90
A0
90
ENDCHAR
STARTCHAR quotedblright
ENCODING 8221
SWIDTH 458 0
DWIDTH 6 0
BBX 4 4 1 6
BITMAP
90
50
90
A0
ENDCHAR
STARTCHAR quotedblbase
ENCODING 8222
SWIDTH 458 0
DWIDTH 6 0
BBX 4 4 1 -2
BITMAP
90
50
90
A0
ENDCHAR
STARTCHAR uni201F
ENCODING 8223
SWIDTH 458 0
DWIDTH 6 0
BBX 4 4 1 6
BITMAP
90
A0
90
50
ENDCHAR
STARTCHAR dagger
ENCODING 8224
SWIDTH 504 0
DWIDTH 7 0
BBX 5 12 1 -2
BITMAP
20
20
20
F8
20
20
20
20
20
20
20
20
ENDCHAR
STARTCHAR daggerdbl
ENCODING 8225
SWIDTH 488 0
DWIDTH 7 0
BBX 5 11 1 -1
BITMAP
20
20
20
F8
20
20
20
F8
20
20
20
ENDCHAR
STARTCHAR bullet
ENCODING 8226
SWIDTH 409 0
DWIDTH 6 0
BBX 4 4 1 3
BITMAP
40
60
F0
40
ENDCHAR
STARTCHAR ellipsis
ENCODING 8230
SWIDTH 1000 0
DWIDTH 14 0
BBX 11 1 2 0
BITMAP
8420
ENDCHAR
STARTCHAR perthousand
ENCODING 8240
SWIDTH 1208 0
DWIDTH 17 0
BBX 15 11 1 -1
BITMAP
0100
7E00
9200
9200
9400
698C
0A52
1252
1252
218C
2000
ENDCHAR
STARTCHAR guilsinglleft
ENCODING 8249
SWIDTH 257 0
DWIDTH 4 0
BBX 2 5 1 1
BITMAP
40
40
80
40
40
ENDCHAR
STARTCHAR guilsinglright
ENCODING 8250
SWIDTH 257 0
DWIDTH 4 0
BBX 2 5 1 1
BITMAP
80
80
40
80
80
ENDCHAR
STARTCHAR fraction
ENCODING 8260
SWIDTH 150 0
DWIDTH 2 0
BBX 6 10 -2 0
BITMAP
04
04
08
08
10
20
20
40
40
80
ENDCHAR
STARTCHAR oneinferior
ENCODING 8321
SWIDTH 380 0
DWIDTH 5 0
BBX 3 5 1 -3
BITMAP
C0
40
40
40
E0
ENDCHAR
STARTCHAR twoinferior
ENCODING 8322
SWIDTH 380 0
DWIDTH 5 0
BBX 3 5 1 -3
BITMAP
40
A0
20
C0
E0
ENDCHAR
STARTCHAR threeinferior
ENCODING 8323
SWIDTH 380 0
DWIDTH 5 0
BBX 5 5 0 -3
BITMAP
60
10
70
08
F0
ENDCHAR
STARTCHAR uni20A5
ENCODING 8357
SWIDTH 923 0
DWIDTH 13 0
BBX 11 10 1 -1
BITMAP
0100
0100
5B80
E640
4640
4440
4440
4440
EEE0
0800
ENDCHAR
STARTCHAR uni20A6
ENCODING 8358
SWIDTH 780 0
DWIDTH 11 0
BBX 9 10 1 0
BITMAP
C380
6100
5100
7F00
4900
4900
7F00
4300
4300
E100
ENDCHAR
STARTCHAR uni20A9
ENCODING 8361
SWIDTH 940 0
DWIDTH 13 0
BBX 14 10 0 0
BITMAP
E01C
4208
4208
4FF0
2510
2490
2FF0
28A0
1860
1040
ENDCHAR
STARTCHAR Euro
ENCODING 8364
SWIDTH 684 0
DWIDTH 9 0
BBX 9 10 0 0
BITMAP
1E00
2180
2080
FE00
4000
4000
FE00
4080
3180
0E00
ENDCHAR
STARTCHAR uni20AD
ENCODING 8365
SWIDTH 658 0
DWIDTH 9 0
BBX 9 10 1 0
BITMAP
E780
4200
4400
5800
FF80
5000
4800
4400
4200
E180
ENDCHAR
STARTCHAR uni2103
ENCODING 8451
SWIDTH 1017 0
DWIDTH 14 0
BBX 14 10 0 0
BITMAP
00F0
610C
9104
9200
6200
0200
0200
0204
018C
0070
ENDCHAR
STARTCHAR uni2109
ENCODING 8457
SWIDTH 913 0
DWIDTH 13 0
BBX 13 10 0 0
BITMAP
03F8
6108
9108
9100
6110
01F0
0110
0100
0100
0380
ENDCHAR
STARTCHAR trademark
ENCODING 8482
SWIDTH 1100 0
DWIDTH 15 0
BBX 15 6 0 4
BITMAP
FD86
958C
1154
1154
1124
3BAE
ENDCHAR
STARTCHAR uni212A
ENCODING 8490
SWIDTH 658 0
DWIDTH 9 0
BBX 9 10 1 0
BITMAP
E780
4200
4400
5800
6000
5000
4800
4400
4200
E180
ENDCHAR
STARTCHAR uni212B
ENCODING 8491
SWIDTH 627 0
DWIDTH 9 0
BBX 9 12 0 0
BITMAP
0800
1400
0800
0800
1400
1400
2400
1C00
2200
4100
4100
E380
ENDCHAR
STARTCHAR uni2132
ENCODING 8498
SWIDTH 580 0
DWIDTH 8 0
BBX 7 10 1 0
BITMAP
0E
04
04
44
7C
44
04
84
84
FE
ENDCHAR
STARTCHAR universal
ENCODING 8704
SWIDTH 635 0
DWIDTH 9 0
BBX 9 10 0 0
BITMAP
E380
4100
4200
2200
1C00
2400
1400
1400
1800
0800
ENDCHAR
STARTCHAR existential
ENCODING 8707
SWIDTH 606 0
DWIDTH 8 0
BBX 7 10 1 0
BITMAP
FE
84
84
04
44
7C
44
04
84
FE
ENDCHAR
STARTCHAR uni2204
ENCODING 8708
SWIDTH 606 0
DWIDTH 8 0
BBX 7 10 1 0
BITMAP
FE
84
8C
0C
4C
7C
54
14
A4
FE
ENDCHAR
STARTCHAR minus
ENCODING 8722
SWIDTH 570 0
DWIDTH 8 0
BBX 7 1 0 3
BITMAP
FE
ENDCHAR
STARTCHAR fraction
ENCODING 8725
SWIDTH 150 0
DWIDTH 2 0
BBX 6 10 -2 0
BITMAP
04
04
08
08
10
20
20
40
40
80
ENDCHAR
STARTCHAR periodcentered
ENCODING 8729
SWIDTH 265 0
DWIDTH 4 0
BBX 1 1 1 3
BITMAP
80
ENDCHAR
STARTCHAR uni2236
ENCODING 8758
SWIDTH 265 0
DWIDTH 4 0
BBX 1 7 1 0
BITMAP
80
80
00
00
00
80
80
ENDCHAR
STARTCHAR uni2259
ENCODING 8793
SWIDTH 570 0
DWIDTH 8 0
BBX 7 7 0 1
BITMAP
18
24
00
FE
00
00
FE
ENDCHAR
STARTCHAR uni225A
ENCODING 8794
SWIDTH 570 0
DWIDTH 8 0
BBX 7 8 0 1
BITMAP
24
18
10
00
FE
00
00
FE
ENDCHAR
STARTCHAR notequal
ENCODING 8800
SWIDTH 570 0
DWIDTH 8 0
BBX 7 10 0 -2
BITMAP
04
04
08
FE
08
10
FE
10
20
20
ENDCHAR
STARTCHAR equivalence
ENCODING 8801
SWIDTH 570 0
DWIDTH 8 0
BBX 7 5 0 1
BITMAP
FE
00
FE
00
FE
ENDCHAR
STARTCHAR uni2262
ENCODING 8802
SWIDTH 570 0
DWIDTH 8 0
BBX 7 10 0 -1
BITMAP
04
04
08
FE
08
FE
10
FE
20
20
ENDCHAR
STARTCHAR lessequal
ENCODING 8804
SWIDTH 570 0
DWIDTH 8 0
BBX 7 10 1 -3
BITMAP
02
0E
30
40
C0
30
0C
02
00
FE
ENDCHAR
STARTCHAR greaterequal
ENCODING 8805
SWIDTH 570 0
DWIDTH 8 0
BBX 7 10 0 -3
BITMAP
80
E0
18
04
06
18
60
80
00
FE
ENDCHAR
STARTCHAR uni226E
ENCODING 8814
SWIDTH 570 0
DWIDTH 8 0
BBX 7 10 1 -2
BITMAP
04
06
0E
38
48
D0
30
1C
22
20
ENDCHAR
STARTCHAR uni226F
ENCODING 8815
SWIDTH 570 0
DWIDTH 8 0
BBX 7 10 0 -2
BITMAP
04
84
E8
18
0C
16
18
70
A0
20
ENDCHAR
STARTCHAR uni2270
ENCODING 8816
SWIDTH 570 0
DWIDTH 8 0
BBX 7 10 1 -3
BITMAP
06
0E
38
48
C8
30
1C
12
20
FE
ENDCHAR
STARTCHAR uni2271
ENCODING 8817
SWIDTH 570 0
DWIDTH 8 0
BBX 7 10 0 -3
BITMAP
84
E4
18
0C
0E
18
70
90
20
FE
ENDCHAR
STARTCHAR fi
ENCODING -1
SWIDTH 610 0
DWIDTH 8 0
BBX 7 10 1 0
BITMAP
38
44
40
FC
44
44
44
44
44
EE
ENDCHAR
STARTCHAR fl
ENCODING -1
SWIDTH 610 0
DWIDTH 8 0
BBX 7 10 1 0
BITMAP
3C
44
44
F4
44
44
44
44
44
EE
ENDCHAR
ENDFONT
